<?xml version="1.0" standalone="no"?>
<!DOCTYPE svg PUBLIC "-//W3C//DTD SVG 1.1//EN" "http://www.w3.org/Graphics/SVG/1.1/DTD/svg11.dtd" >
<svg>
<metadata>
Created by FontForge 20110222 at Mon Mar  7 11:36:21 2011
 By www-data
Copyright (c) 2003 by This Font is designed by Ralph Oliver du Carrois. All rights reserved.
</metadata>
<defs>
<font id="Colaborate-Medium" horiz-adv-x="540" >
  <font-face 
    font-family="Colaborate-Medium"
    font-weight="400"
    font-stretch="normal"
    units-per-em="1000"
    panose-1="2 0 6 3 7 0 0 2 0 4"
    ascent="800"
    descent="-200"
    x-height="457"
    cap-height="647"
    bbox="-37 -245 1107 835"
    underline-thickness="50"
    underline-position="-50"
    stemh="54"
    stemv="113"
    unicode-range="U+0020-2122"
  />
    <missing-glyph />
    <glyph glyph-name="eth" unicode="&#xf0;" 
d="M495 283c0 -148 -40 -300 -232 -300c-115 0 -217 80 -217 201c0 141 67 221 206 221c31 0 97 -19 125 -74c0 96 -37 163 -103 196l-78 -52l-79 46l57 39c-15 3 -33 3 -51 3h-25l-37 103c82 -1 154 -12 216 -35l62 44l77 -46l-58 -40c90 -59 137 -159 137 -306zM368 236
c-14 36 -41 75 -107 75c-87 0 -89 -75 -89 -121v-6c0 -75 42 -107 90 -107c62 0 106 26 106 159z" />
    <glyph glyph-name="Scaron" unicode="&#x160;" horiz-adv-x="594" 
d="M525 168c0 -156 -134 -187 -267 -187c-56 0 -139 16 -194 31l39 106c48 -18 103 -40 156 -40c81 0 138 15 138 88c0 69 -78 92 -159 123c-86 33 -174 76 -174 193c0 128 132 178 251 178c44 0 129 -10 182 -28l-39 -106c-37 16 -84 37 -146 37c-94 0 -120 -43 -120 -81
c0 -52 61 -71 130 -96c93 -33 203 -76 203 -218zM428 809l-99 -117h-78l-96 117h82l53 -64l56 64h82z" />
    <glyph glyph-name="scaron" unicode="&#x161;" horiz-adv-x="451" 
d="M410 125c0 -107 -100 -139 -197 -139c-53 0 -125 14 -175 32l39 93c51 -19 85 -38 138 -38c70 0 79 24 79 51c0 29 -41 41 -89 55c-71 21 -158 49 -158 156c0 110 100 136 194 136c42 0 94 -9 157 -29l-39 -93c-46 21 -72 35 -117 35c-51 0 -79 -13 -79 -46
c0 -30 38 -42 85 -56c71 -22 162 -50 162 -157zM361 647l-99 -117h-78l-96 117h82l53 -64l56 64h82z" />
    <glyph glyph-name="Yacute" unicode="&#xdd;" horiz-adv-x="619" 
d="M605 647l-233 -356v-291h-126v287l-232 360h143l157 -248l155 248h136zM382 809l-131 -117h-78l96 117h113z" />
    <glyph glyph-name="yacute" unicode="&#xfd;" horiz-adv-x="530" 
d="M494 457l-191 -530c-28 -78 -75 -138 -174 -172l-38 93c55 15 78 38 88 65l40 106l-183 438h121l117 -311l102 311h118zM369 647l-131 -117h-78l96 117h113z" />
    <glyph glyph-name="Zcaron" unicode="&#x17d;" horiz-adv-x="561" 
d="M518 545l-338 -447h330v-98h-434l-33 102l339 447h-302v98h405zM407 809l-99 -117h-78l-96 117h82l53 -64l56 64h82z" />
    <glyph glyph-name="zcaron" unicode="&#x17e;" horiz-adv-x="444" 
d="M418 364l-262 -277h246v-87h-337l-39 93l265 277h-233v87h321zM347 647l-99 -117h-78l-96 117h82l53 -64l56 64h82z" />
    <glyph glyph-name="onehalf" unicode="&#xbd;" horiz-adv-x="830" 
d="M760 0h-253l-21 61c58 39 191 113 191 170c0 47 -30 53 -62 53c-26 0 -53 -7 -94 -27l-22 62c60 19 77 23 117 23c66 0 143 -24 143 -109c0 -70 -114 -139 -172 -175h173v-58zM597 629l-363 -629h-97l370 629h90zM227 313h-81v263l-63 -50l-23 55l93 66h81z" />
    <glyph glyph-name="onequarter" unicode="&#xbc;" horiz-adv-x="830" 
d="M728 86h-54v-86h-80v86h-145l-25 58l163 190h87v-190h54v-58zM602 629l-363 -629h-97l362 629h98zM231 313h-81v263l-63 -50l-23 55l93 66h82zM594 144v119l-103 -119h103z" />
    <glyph glyph-name="onesuperior" unicode="&#xb9;" horiz-adv-x="365" 
d="M245 313h-81v263l-63 -50l-23 55l93 66h74v-334z" />
    <glyph glyph-name="threequarters" unicode="&#xbe;" horiz-adv-x="830" 
d="M747 86h-54v-86h-80v86h-145l-25 58l163 190h87v-190h54v-58zM635 629l-363 -629h-97l362 629h98zM315 411c0 -81 -86 -102 -152 -102c-41 0 -79 3 -114 14l22 62c12 -6 54 -19 94 -19c42 0 69 20 69 46c0 48 -48 54 -117 54v55c68 0 108 4 108 45c0 30 -24 36 -56 36
c-29 0 -64 -13 -91 -25l-22 63c26 12 85 20 115 20c83 0 135 -31 135 -93c0 -46 -40 -68 -83 -73c42 -6 92 -29 92 -83zM613 144v119l-103 -119h103z" />
    <glyph glyph-name="threesuperior" unicode="&#xb3;" horiz-adv-x="365" 
d="M315 411c0 -81 -86 -102 -152 -102c-41 0 -79 3 -114 14l22 62c12 -6 54 -19 94 -19c42 0 69 20 69 46c0 48 -48 54 -117 54v55c68 0 108 4 108 45c0 30 -24 36 -56 36c-29 0 -64 -13 -91 -25l-22 63c26 12 85 20 115 20c83 0 135 -31 135 -93c0 -46 -40 -68 -83 -73
c42 -6 92 -29 92 -83z" />
    <glyph glyph-name="twosuperior" unicode="&#xb2;" horiz-adv-x="365" 
d="M319 318h-253l-21 61c58 39 191 113 191 170c0 47 -30 53 -62 53c-26 0 -53 -7 -94 -27l-22 62c60 19 77 23 117 23c66 0 143 -24 143 -109c0 -70 -114 -139 -172 -175h173v-58z" />
    <glyph glyph-name="brokenbar" unicode="&#xa6;" horiz-adv-x="270" 
d="M183 359h-96v234h96v-234zM183 -78h-96v234h96v-234z" />
    <glyph glyph-name="multiply" unicode="&#xd7;" 
d="M497 94l-68 -68l-158 158l-158 -158l-68 68l158 158l-158 158l68 68l158 -158l158 158l68 -68l-158 -158z" />
    <glyph glyph-name="space" unicode=" " horiz-adv-x="270" 
 />
    <glyph glyph-name="exclam" unicode="!" horiz-adv-x="270" 
d="M191 182h-112v465h112v-465zM195 0h-120v110h120v-110z" />
    <glyph glyph-name="quotedbl" unicode="&#x22;" horiz-adv-x="400" 
d="M325 647l-8 -217h-83l-8 217h99zM175 647l-8 -217h-84l-8 217h100z" />
    <glyph glyph-name="numbersign" unicode="#" 
d="M524 389h-110l-24 -139h95v-79h-109l-30 -171h-94l30 171h-81l-30 -171h-94l30 171h-91v79h105l24 139h-90v79h105l31 179h94l-31 -179h81l31 179h94l-31 -179h95v-79zM320 389h-81l-24 -139h81z" />
    <glyph glyph-name="dollar" unicode="$" 
d="M484 168c0 -123 -75 -168 -176 -182v-84h-88v79c-60 1 -120 15 -178 31l39 106c45 -17 90 -38 139 -40v207c-87 34 -182 73 -182 197c0 109 84 162 182 175v89h88v-87c46 -3 107 -13 148 -27l-39 -106c-29 13 -65 29 -109 35v-185c85 -32 176 -77 176 -208zM222 411v146
c-48 -13 -60 -46 -60 -75c0 -34 26 -54 60 -71zM360 166c0 37 -23 60 -54 79v-156c32 12 54 34 54 77z" />
    <glyph glyph-name="percent" unicode="%" horiz-adv-x="830" 
d="M787 166c0 -107 -34 -179 -145 -179c-110 0 -143 71 -143 179c0 107 42 172 144 172c110 0 144 -65 144 -172zM640 629l-363 -629h-97l362 629h98zM332 488c0 -107 -35 -179 -146 -179c-110 0 -143 71 -143 179c0 107 42 172 144 172c110 0 145 -65 145 -172zM707 166
c0 76 -10 114 -64 114c-55 0 -63 -49 -63 -114c0 -78 7 -121 62 -121c54 0 65 47 65 121zM251 488c0 76 -10 114 -64 114c-55 0 -63 -49 -63 -114c0 -78 7 -121 62 -121c54 0 65 47 65 121z" />
    <glyph glyph-name="ampersand" unicode="&#x26;" 
d="M495 0h-106l-16 45c-23 -32 -80 -61 -120 -61c-101 0 -207 46 -207 197c0 60 16 138 108 185c-28 22 -88 58 -88 129c0 91 51 168 183 168c115 0 183 -55 183 -164c0 -80 -100 -132 -174 -164c-70 -30 -96 -75 -96 -152c0 -52 23 -113 103 -113c43 0 74 32 101 67v79h-88
v80h200v-156c0 -46 15 -114 17 -140zM319 500c0 39 -13 77 -72 77c-50 0 -68 -36 -68 -81c0 -41 36 -66 54 -84c41 18 86 42 86 88z" />
    <glyph glyph-name="quotesingle" unicode="'" horiz-adv-x="270" 
d="M185 647l-8 -217h-84l-8 217h100z" />
    <glyph glyph-name="parenleft" unicode="(" horiz-adv-x="315" 
d="M263 -128h-103c-85 147 -106 232 -106 382c0 183 31 267 101 393h103c-71 -131 -91 -224 -91 -393c0 -139 15 -234 96 -382z" />
    <glyph glyph-name="parenright" unicode=")" horiz-adv-x="315" 
d="M263 254c0 -150 -21 -235 -106 -382h-103c81 148 96 243 96 382c0 169 -20 262 -91 393h103c70 -126 101 -210 101 -393z" />
    <glyph glyph-name="asterisk" unicode="*" horiz-adv-x="430" 
d="M420 473l-150 -36l-1 -9l98 -128l-58 -41l-85 132h-10l-88 -133l-58 44l99 126l-3 9l-154 37l23 71l148 -55l9 7l-7 153h70l-7 -156l8 -5l147 54z" />
    <glyph glyph-name="plus" unicode="+" 
d="M488 178h-170v-178h-96v178h-170v86h170v167h96v-167h170v-86z" />
    <glyph glyph-name="comma" unicode="," horiz-adv-x="270" 
d="M195 75l-81 -178h-86l47 178h120z" />
    <glyph glyph-name="hyphen" unicode="-" horiz-adv-x="350" 
d="M323 178h-296v94h296v-94z" />
    <glyph glyph-name="period" unicode="." horiz-adv-x="270" 
d="M195 0h-120v110h120v-110z" />
    <glyph glyph-name="slash" unicode="/" horiz-adv-x="300" 
d="M304 657l-211 -668h-97l213 668h95z" />
    <glyph glyph-name="zero" unicode="0" 
d="M502 308c0 -195 -49 -325 -234 -325c-183 0 -230 129 -230 325c0 194 61 313 231 313c183 0 233 -119 233 -313zM376 308c0 139 -10 219 -107 219s-105 -101 -105 -219c0 -141 7 -231 104 -231c96 0 108 97 108 231z" />
    <glyph glyph-name="one" unicode="1" 
d="M392 -1h-126v488l-114 -91l-38 91l156 120h122v-608z" />
    <glyph glyph-name="two" unicode="2" 
d="M496 0h-413l-35 103c96 70 310 214 310 317c0 86 -44 108 -98 108c-44 0 -87 -14 -155 -50l-37 103c100 35 128 41 194 41c110 0 222 -43 222 -198c0 -128 -171 -265 -268 -330h280v-94z" />
    <glyph glyph-name="three" unicode="3" 
d="M469 170c0 -148 -129 -187 -239 -187c-68 0 -132 6 -190 26l37 103c20 -10 90 -35 156 -35c71 0 110 43 110 94c0 92 -75 102 -190 102v92c113 0 175 5 175 86c0 55 -35 77 -89 77c-48 0 -106 -24 -151 -46l-37 103c44 22 142 37 192 37c138 0 211 -56 211 -169
c0 -84 -66 -124 -137 -133c70 -11 152 -51 152 -150z" />
    <glyph glyph-name="four" unicode="4" 
d="M518 161h-96v-161h-124v161h-242l-41 96l271 350h136v-351h96v-95zM298 256v234l-181 -234h181z" />
    <glyph glyph-name="five" unicode="5" 
d="M489 196c0 -138 -112 -213 -246 -213c-61 0 -141 6 -196 24l37 103c45 -18 112 -33 160 -33c99 0 121 58 121 121c0 78 -40 101 -91 101c-63 0 -93 -23 -124 -41l-81 31v318h395v-94h-271v-133c26 10 51 15 90 15c121 0 206 -63 206 -199z" />
    <glyph glyph-name="six" unicode="6" 
d="M494 184c0 -121 -102 -201 -217 -201c-192 0 -232 152 -232 300c0 160 74 339 267 339c37 0 104 -8 145 -19l-37 -103c-32 16 -65 28 -103 28c-116 0 -154 -103 -154 -197c28 55 94 74 125 74c139 0 206 -80 206 -221zM368 184v6c0 46 -2 121 -89 121
c-66 0 -93 -39 -107 -75c0 -133 44 -159 106 -159c48 0 90 32 90 107z" />
    <glyph glyph-name="seven" unicode="7" 
d="M474 526l-215 -526h-134l237 513h-309v93h382z" />
    <glyph glyph-name="eight" unicode="8" 
d="M502 155c0 -134 -104 -172 -234 -172c-128 0 -230 38 -230 172c0 89 54 144 146 165c-31 12 -125 41 -125 136c0 104 71 166 214 166c152 0 214 -52 214 -165c0 -93 -93 -131 -131 -138c94 -24 146 -71 146 -164zM365 452c0 44 -15 77 -92 77c-74 0 -92 -30 -92 -77
c0 -54 50 -77 88 -90c43 14 96 39 96 90zM379 158c0 69 -51 98 -108 117c-59 -20 -110 -44 -110 -117c0 -45 29 -82 107 -82c79 0 111 34 111 82z" />
    <glyph glyph-name="nine" unicode="9" 
d="M495 322c0 -160 -74 -339 -267 -339c-37 0 -104 8 -145 19l37 103c32 -16 65 -28 103 -28c116 0 154 103 154 197c-28 -55 -94 -74 -125 -74c-139 0 -206 79 -206 220c0 121 107 202 217 202c196 0 232 -152 232 -300zM368 369c0 133 -44 159 -106 159
c-48 0 -90 -33 -90 -108v-6c0 -46 2 -120 89 -120c66 0 93 39 107 75z" />
    <glyph glyph-name="colon" unicode=":" horiz-adv-x="270" 
d="M195 342h-120v110h120v-110zM195 0h-120v110h120v-110z" />
    <glyph glyph-name="semicolon" unicode=";" horiz-adv-x="270" 
d="M195 342h-120v110h120v-110zM195 75l-81 -178h-86l47 178h120z" />
    <glyph glyph-name="less" unicode="&#x3c;" 
d="M495 37l-450 147v120l450 149v-109l-337 -100l337 -98v-109z" />
    <glyph glyph-name="equal" unicode="=" 
d="M495 242h-450v86h450v-86zM495 69h-450v86h450v-86z" />
    <glyph glyph-name="greater" unicode="&#x3e;" 
d="M495 186l-450 -149v109l337 100l-337 98v109l450 -147v-120z" />
    <glyph glyph-name="question" unicode="?" horiz-adv-x="460" 
d="M429 490c0 -119 -165 -142 -165 -234v-80h-112v85c0 136 156 146 156 229c0 48 -18 70 -81 70c-37 0 -122 -17 -158 -35l-18 102c43 15 128 30 176 30c83 0 202 -15 202 -167zM268 0h-120v110h120v-110z" />
    <glyph glyph-name="at" unicode="@" horiz-adv-x="900" 
d="M820 381c0 -199 -161 -255 -324 -255c-152 0 -234 69 -234 196c0 104 60 190 210 190c43 0 93 -9 109 -14v-153h20l31 -82l-153 -13v171c-5 3 -10 5 -16 5c-34 0 -90 -9 -90 -104c0 -109 90 -114 125 -114c117 0 209 18 209 172c0 158 -122 193 -225 193
c-94 0 -289 -29 -289 -253c0 -229 200 -252 293 -252c67 0 131 11 213 32l39 -93c-91 -20 -181 -26 -255 -26c-232 0 -403 107 -403 339c0 237 182 340 402 340c138 0 338 -67 338 -279z" />
    <glyph glyph-name="A" unicode="A" horiz-adv-x="681" 
d="M652 0h-139l-58 173h-231l-61 -173h-134l263 647h116zM423 268l-79 239l-85 -239h164z" />
    <glyph glyph-name="B" unicode="B" horiz-adv-x="625" 
d="M571 189c0 -148 -101 -189 -215 -189h-262v647h229c121 0 218 -39 218 -178c0 -68 -44 -113 -103 -130c80 -11 133 -59 133 -150zM413 468c0 43 -20 82 -90 82h-103v-169h117c44 0 76 29 76 87zM442 189c0 73 -46 96 -103 96h-119v-188h130c49 0 92 21 92 92z" />
    <glyph glyph-name="C" unicode="C" horiz-adv-x="575" 
d="M539 12c-57 -20 -109 -31 -182 -31c-218 0 -298 138 -298 342c0 180 72 337 302 337c56 0 122 -10 171 -26l-39 -106c-42 18 -84 35 -132 35c-127 0 -172 -89 -172 -239c0 -159 43 -246 166 -246c54 0 93 19 145 40z" />
    <glyph glyph-name="D" unicode="D" horiz-adv-x="673" 
d="M614 326c0 -238 -96 -326 -309 -326h-211v647h211c209 0 309 -85 309 -321zM484 325c0 204 -80 225 -179 225h-85v-453h94c100 0 170 39 170 228z" />
    <glyph glyph-name="E" unicode="E" horiz-adv-x="581" 
d="M487 0h-393v647h384v-97h-258v-167h237v-97h-237v-189h267v-97z" />
    <glyph glyph-name="F" unicode="F" horiz-adv-x="530" 
d="M478 549h-258v-170h246v-96h-246v-283h-126v647h384v-98z" />
    <glyph glyph-name="G" unicode="G" horiz-adv-x="634" 
d="M575 39c-67 -39 -121 -58 -218 -58c-238 0 -298 168 -298 343c0 199 90 336 307 336c45 0 117 -14 163 -26l-39 -106c-39 17 -79 35 -123 35c-105 0 -178 -51 -178 -239c0 -156 38 -246 171 -246c46 0 72 7 103 25v146h-143v97h255v-307z" />
    <glyph glyph-name="H" unicode="H" horiz-adv-x="692" 
d="M598 0h-126v285h-252v-285h-126v647h126v-264h252v264h126v-647z" />
    <glyph glyph-name="I" unicode="I" horiz-adv-x="290" 
d="M208 0h-126v647h126v-647z" />
    <glyph glyph-name="J" unicode="J" horiz-adv-x="443" 
d="M349 204c0 -221 -168 -271 -302 -308l-33 104c90 18 209 24 209 194v453h126v-443z" />
    <glyph glyph-name="K" unicode="K" horiz-adv-x="659" 
d="M645 0h-163l-262 295v-295h-126v647h126v-273l239 273h142l-264 -304z" />
    <glyph glyph-name="L" unicode="L" horiz-adv-x="495" 
d="M489 0h-395v647h126v-547h269v-100z" />
    <glyph glyph-name="M" unicode="M" horiz-adv-x="925" 
d="M831 0h-124v513l-182 -513h-129l-182 513v-513h-120v647h207l164 -478l168 478h198v-647z" />
    <glyph glyph-name="N" unicode="N" horiz-adv-x="727" 
d="M633 0h-189l-230 498v-498h-120v647h187l228 -498v498h124v-647z" />
    <glyph glyph-name="O" unicode="O" horiz-adv-x="725" 
d="M666 321c0 -192 -77 -340 -302 -340c-233 0 -305 146 -305 340c0 190 80 339 306 339c223 0 301 -140 301 -339zM536 321c0 172 -55 242 -172 242c-119 0 -175 -72 -175 -242c0 -178 55 -243 175 -243c124 0 172 82 172 243z" />
    <glyph glyph-name="P" unicode="P" horiz-adv-x="600" 
d="M550 453c0 -147 -88 -200 -218 -200h-112v-253h-126v647h227c132 0 229 -46 229 -194zM422 453c0 89 -52 97 -103 97h-99v-200h104c54 0 98 23 98 103z" />
    <glyph glyph-name="Q" unicode="Q" horiz-adv-x="725" 
d="M666 321c0 -192 -77 -340 -302 -340c-233 0 -305 146 -305 340c0 190 78 339 306 339c223 0 301 -140 301 -339zM592 -64l-43 -83l-226 34l43 70zM536 321c0 172 -55 242 -172 242c-119 0 -175 -72 -175 -242c0 -178 55 -243 175 -243c124 0 172 82 172 243z" />
    <glyph glyph-name="R" unicode="R" horiz-adv-x="642" 
d="M599 0h-154l-197 269h-28v-269h-126v647h242c103 0 219 -34 219 -187c0 -87 -39 -168 -160 -187zM427 460c0 54 -27 90 -86 90h-121v-184h122c58 0 85 40 85 94z" />
    <glyph glyph-name="S" unicode="S" horiz-adv-x="594" 
d="M525 168c0 -156 -134 -187 -267 -187c-56 0 -139 16 -194 31l39 106c48 -18 103 -40 156 -40c81 0 138 15 138 88c0 69 -78 92 -159 123c-86 33 -174 76 -174 193c0 128 132 178 251 178c44 0 129 -10 182 -28l-39 -106c-37 16 -84 37 -146 37c-94 0 -120 -43 -120 -81
c0 -52 61 -71 130 -96c93 -33 203 -76 203 -218z" />
    <glyph glyph-name="T" unicode="T" horiz-adv-x="526" 
d="M504 549h-178v-549h-126v549h-178v98h482v-98z" />
    <glyph glyph-name="U" unicode="U" horiz-adv-x="723" 
d="M629 237c0 -172 -94 -256 -261 -256c-185 0 -274 85 -274 258v408h126v-398c0 -145 67 -171 148 -171c79 0 135 43 135 171v398h126v-410z" />
    <glyph glyph-name="V" unicode="V" horiz-adv-x="652" 
d="M624 647l-236 -647h-116l-244 647h139l166 -492l157 492h134z" />
    <glyph glyph-name="W" unicode="W" horiz-adv-x="967" 
d="M933 647l-166 -647h-156l-126 452l-148 -452h-156l-147 647h133l108 -494l142 467h156l118 -467l119 494h123z" />
    <glyph glyph-name="X" unicode="X" horiz-adv-x="632" 
d="M596 0h-149l-134 234l-148 -234h-135l216 334l-190 313h145l119 -203l127 203h135l-198 -308z" />
    <glyph glyph-name="Y" unicode="Y" horiz-adv-x="619" 
d="M605 647l-233 -356v-291h-126v287l-232 360h143l157 -248l155 248h136z" />
    <glyph glyph-name="Z" unicode="Z" horiz-adv-x="561" 
d="M518 545l-338 -447h330v-98h-434l-33 102l339 447h-302v98h405z" />
    <glyph glyph-name="bracketleft" unicode="[" horiz-adv-x="305" 
d="M258 -127h-175v803h175v-80h-79v-640h79v-83z" />
    <glyph glyph-name="backslash" unicode="\" horiz-adv-x="300" 
d="M304 -11h-97l-211 668h95z" />
    <glyph glyph-name="bracketright" unicode="]" horiz-adv-x="305" 
d="M232 -127h-175v83h79v640h-79v80h175v-803z" />
    <glyph glyph-name="asciicircum" unicode="^" 
d="M508 269h-105l-134 292l-135 -292h-102l181 378h110z" />
    <glyph glyph-name="underscore" unicode="_" horiz-adv-x="500" 
d="M501 -116h-502v86h502v-86z" />
    <glyph glyph-name="grave" unicode="`" horiz-adv-x="247" 
d="M228 530h-78l-131 117h113z" />
    <glyph glyph-name="a" unicode="a" horiz-adv-x="522" 
d="M464 0h-107l-17 46c-25 -24 -69 -59 -119 -59c-116 0 -178 46 -178 133c0 93 56 167 251 167h38v22c0 35 -7 74 -65 74c-63 0 -123 -19 -167 -40l-39 93c61 22 140 34 212 34c101 0 173 -46 173 -146v-184c0 -36 12 -89 18 -140zM333 121v90h-25
c-108 0 -147 -31 -147 -86c0 -39 39 -51 81 -51s73 22 91 47z" />
    <glyph glyph-name="b" unicode="b" horiz-adv-x="531" 
d="M488 231c0 -131 -68 -244 -205 -244c-57 0 -93 36 -107 59l-18 -46h-104c7 54 12 82 12 140v517h113v-260c26 36 64 73 120 73c137 0 189 -112 189 -239zM372 229c0 124 -43 154 -94 154c-49 0 -77 -45 -101 -88v-157c20 -43 49 -64 88 -64c57 0 107 34 107 155z" />
    <glyph glyph-name="c" unicode="c" horiz-adv-x="464" 
d="M430 19c-35 -17 -126 -32 -161 -32c-150 0 -226 98 -226 238c0 148 74 245 229 245c41 0 121 -19 154 -32l-39 -93c-34 17 -82 38 -116 38c-76 0 -112 -41 -112 -158c0 -107 43 -151 111 -151c31 0 82 18 121 38z" />
    <glyph glyph-name="d" unicode="d" horiz-adv-x="531" 
d="M477 0h-104l-18 46c-14 -23 -50 -59 -107 -59c-153 0 -205 113 -205 244c0 127 58 239 189 239c56 0 94 -37 120 -73v260h113v-517c0 -58 5 -86 12 -140zM354 138v157c-24 43 -52 88 -101 88c-51 0 -94 -30 -94 -154c0 -121 38 -155 107 -155c39 0 68 21 88 64z" />
    <glyph glyph-name="e" unicode="e" horiz-adv-x="521" 
d="M476 185h-314c9 -73 47 -114 110 -114c43 0 95 15 143 39l37 -87c-55 -25 -125 -36 -188 -36c-148 0 -221 110 -221 237c0 106 48 246 217 246c159 0 216 -94 216 -285zM367 266c-5 87 -49 117 -108 117c-37 0 -93 -22 -97 -117h205z" />
    <glyph glyph-name="f" unicode="f" horiz-adv-x="334" 
d="M334 582c-90 -9 -141 -36 -141 -103v-22h104v-87h-104v-370h-113v370h-69v87h69v13c0 140 132 197 226 205z" />
    <glyph glyph-name="g" unicode="g" horiz-adv-x="545" 
d="M517 473l-29 -76h-56c18 -18 46 -58 46 -101c0 -78 -47 -175 -208 -175c-17 0 -76 6 -100 17c-11 -6 -21 -16 -21 -33c0 -24 23 -32 137 -41c182 -14 224 -58 224 -133c0 -100 -119 -132 -234 -132c-182 0 -238 52 -238 129c0 54 49 77 74 87c-40 18 -58 48 -58 85
c0 33 26 60 53 80c-12 15 -46 55 -46 117c0 53 27 173 207 173c34 0 52 -4 77 -9c37 3 124 10 172 12zM362 299c0 53 -30 86 -92 86c-46 0 -93 -19 -93 -90c0 -65 41 -89 94 -89c70 0 91 50 91 93zM394 -69c0 19 -42 42 -207 46c-21 -10 -33 -27 -33 -45
c0 -33 60 -50 122 -50c90 0 118 12 118 49z" />
    <glyph glyph-name="h" unicode="h" horiz-adv-x="529" 
d="M463 0h-113v293c0 45 -4 91 -71 91c-47 0 -78 -43 -100 -86v-298h-113v657h113v-260c15 20 55 74 119 74c134 0 165 -78 165 -183v-288z" />
    <glyph glyph-name="i" unicode="i" horiz-adv-x="247" 
d="M183 549h-119v98h119v-98zM180 0h-113v457h113v-457z" />
    <glyph glyph-name="j" unicode="j" horiz-adv-x="244" 
d="M180 549h-121v98h121v-98zM176 6c0 -117 -75 -170 -167 -202l-39 93c70 15 93 41 93 100v460h113v-451z" />
    <glyph glyph-name="k" unicode="k" horiz-adv-x="487" 
d="M475 0h-130l-166 229v-229h-113v657h113v-380l150 180h122l-166 -198z" />
    <glyph glyph-name="l" unicode="l" horiz-adv-x="245" 
d="M179 0h-113v657h113v-657z" />
    <glyph glyph-name="m" unicode="m" horiz-adv-x="810" 
d="M744 0h-113v290c0 68 -19 94 -65 94c-54 0 -90 -45 -107 -91v-293h-113v290c0 76 -21 94 -70 94c-47 0 -84 -57 -97 -85v-299h-113v352c0 38 -9 71 -12 105h104l18 -61c16 23 66 75 121 75c79 0 107 -20 146 -74c26 42 74 74 140 74c108 0 161 -57 161 -179v-292z" />
    <glyph glyph-name="n" unicode="n" horiz-adv-x="529" 
d="M463 0h-113v293c0 45 -4 91 -71 91c-47 0 -79 -43 -100 -86v-298h-113v360c0 38 -8 65 -12 97h104l18 -60c19 20 58 74 122 74c134 0 165 -78 165 -183v-288z" />
    <glyph glyph-name="o" unicode="o" horiz-adv-x="537" 
d="M494 231c0 -131 -61 -245 -225 -245c-165 0 -226 113 -226 245c0 127 62 240 226 240c166 0 225 -107 225 -240zM378 231c0 112 -33 153 -109 153c-72 0 -110 -41 -110 -153c0 -103 34 -158 110 -158c70 0 109 47 109 158z" />
    <glyph glyph-name="p" unicode="p" horiz-adv-x="531" 
d="M488 226c0 -127 -58 -240 -189 -240c-43 0 -94 23 -120 59v-225h-113v497c0 58 -5 86 -12 140h104l20 -60c20 28 57 74 114 74c143 0 196 -114 196 -245zM372 228c0 121 -38 156 -107 156c-39 0 -68 -42 -88 -85v-160c24 -43 57 -66 101 -66c51 0 94 31 94 155z" />
    <glyph glyph-name="q" unicode="q" horiz-adv-x="531" 
d="M477 457c-7 -54 -12 -82 -12 -140v-497h-113v225c-26 -36 -77 -59 -120 -59c-141 0 -189 113 -189 240c0 131 60 245 196 245c57 0 99 -47 114 -74l20 60h104zM354 139v160c-20 43 -51 85 -90 85c-69 0 -105 -35 -105 -156c0 -124 43 -155 94 -155c44 0 77 23 101 66z
" />
    <glyph glyph-name="r" unicode="r" horiz-adv-x="390" 
d="M377 449l-39 -93c-17 13 -41 28 -66 28c-53 0 -82 -84 -93 -111v-273h-113v355c0 45 -9 79 -12 102h104l18 -78c16 29 65 92 114 92c38 0 60 -8 87 -22z" />
    <glyph glyph-name="s" unicode="s" horiz-adv-x="451" 
d="M410 125c0 -107 -100 -139 -197 -139c-53 0 -125 14 -175 32l39 93c51 -19 85 -38 138 -38c70 0 79 24 79 51c0 29 -41 41 -89 55c-71 21 -158 49 -158 156c0 110 100 136 194 136c42 0 94 -9 157 -29l-39 -93c-46 21 -72 35 -117 35c-51 0 -79 -13 -79 -46
c0 -30 38 -42 85 -56c71 -22 162 -50 162 -157z" />
    <glyph glyph-name="t" unicode="t" horiz-adv-x="335" 
d="M326 0l-30 -97c-111 28 -207 100 -207 217v250h-76v88h76v122h113v-122h107v-88h-107v-259c0 -65 48 -93 124 -111z" />
    <glyph glyph-name="u" unicode="u" horiz-adv-x="522" 
d="M468 0h-104l-18 60c-19 -20 -54 -74 -118 -74c-127 0 -162 78 -162 183v288h113v-293c0 -44 5 -91 68 -91c47 0 75 43 96 86v298h113v-360c0 -38 8 -65 12 -97z" />
    <glyph glyph-name="v" unicode="v" horiz-adv-x="537" 
d="M501 457l-177 -457h-111l-177 457h121l115 -324l111 324h118z" />
    <glyph glyph-name="w" unicode="w" horiz-adv-x="797" 
d="M767 457l-151 -457h-118l-94 280l-104 -280h-119l-151 457h120l101 -319l101 279h111l96 -279l92 319h116z" />
    <glyph glyph-name="x" unicode="x" horiz-adv-x="494" 
d="M471 0h-127l-98 152l-104 -152h-119l165 231l-154 226h127l90 -143l94 143h118l-156 -219z" />
    <glyph glyph-name="y" unicode="y" horiz-adv-x="530" 
d="M494 457l-191 -530c-28 -78 -75 -138 -174 -172l-38 93c55 15 78 38 88 65l40 106l-183 438h121l117 -311l102 311h118z" />
    <glyph glyph-name="z" unicode="z" horiz-adv-x="444" 
d="M418 364l-262 -277h246v-87h-337l-39 93l265 277h-233v87h321z" />
    <glyph glyph-name="braceleft" unicode="{" horiz-adv-x="390" 
d="M316 -118c-288 8 -112 329 -268 340v87c152 5 -23 328 268 338v-87c-149 0 -33 -234 -170 -296c140 -51 21 -295 170 -295v-87z" />
    <glyph glyph-name="bar" unicode="|" horiz-adv-x="270" 
d="M183 -166h-96v868h96v-868z" />
    <glyph glyph-name="braceright" unicode="}" horiz-adv-x="390" 
d="M342 222c-156 -11 20 -332 -268 -340v87c149 0 30 244 170 295c-137 62 -21 296 -170 296v87c291 -10 116 -333 268 -338v-87z" />
    <glyph glyph-name="asciitilde" unicode="~" 
d="M511 269c0 -66 -47 -125 -138 -125c-90 0 -156 90 -188 90c-44 0 -67 -15 -67 -77l-89 48c0 67 47 125 136 125c99 0 164 -88 189 -88c44 0 68 13 68 75z" />
    <glyph glyph-name="Adieresis" unicode="&#xc4;" horiz-adv-x="681" 
d="M652 0h-139l-58 173h-231l-61 -173h-134l263 647h116zM423 268l-79 239l-85 -239h164zM477 676h-102v93h102v-93zM318 676h-102v93h102v-93z" />
    <glyph glyph-name="Aring" unicode="&#xc5;" horiz-adv-x="681" 
d="M652 0h-139l-58 173h-231l-61 -173h-134l263 647h116zM423 268l-79 239l-85 -239h164zM438 753c0 -46 -37 -82 -83 -82c-45 0 -83 37 -83 82c0 46 37 82 83 82c47 0 83 -35 83 -82zM396 754c0 23 -15 42 -41 42c-25 0 -42 -21 -42 -42c0 -19 17 -42 42 -42
c28 0 41 20 41 42z" />
    <glyph glyph-name="Ccedilla" unicode="&#xc7;" horiz-adv-x="575" 
d="M539 12c-56 -20 -107 -31 -177 -32l-1 -5c49 0 73 -43 73 -73c0 -79 -73 -117 -136 -117c-29 0 -75 4 -104 8l24 79c32 -4 55 -8 75 -8c24 0 48 7 48 36c0 25 -9 36 -80 36l14 52c-156 32 -216 159 -216 335c0 180 72 338 302 338c56 0 122 -11 171 -27l-39 -106
c-42 18 -84 36 -132 36c-127 0 -172 -90 -172 -240c0 -159 43 -247 166 -247c54 0 93 20 145 41z" />
    <glyph glyph-name="Eacute" unicode="&#xc9;" horiz-adv-x="581" 
d="M487 0h-393v647h384v-97h-258v-167h237v-97h-237v-189h267v-97zM371 794l-131 -117h-78l96 117h113z" />
    <glyph glyph-name="Ntilde" unicode="&#xd1;" horiz-adv-x="727" 
d="M633 0h-189l-230 498v-498h-120v647h187l228 -498v498h124v-647zM524 755c-16 -50 -60 -81 -109 -81c-53 0 -70 45 -101 45c-28 0 -44 -18 -51 -39l-60 28c25 58 56 75 112 75c43 0 67 -45 98 -45c28 0 46 28 51 45z" />
    <glyph glyph-name="Odieresis" unicode="&#xd6;" horiz-adv-x="725" 
d="M666 321c0 -192 -77 -340 -302 -340c-233 0 -305 146 -305 340c0 190 80 339 306 339c223 0 301 -140 301 -339zM536 321c0 172 -55 242 -172 242c-119 0 -175 -72 -175 -242c0 -178 55 -243 175 -243c124 0 172 82 172 243zM495 676h-102v93h102v-93zM336 676h-102v93
h102v-93z" />
    <glyph glyph-name="Udieresis" unicode="&#xdc;" horiz-adv-x="723" 
d="M629 237c0 -172 -94 -256 -261 -256c-185 0 -274 85 -274 258v408h126v-398c0 -145 67 -171 148 -171c79 0 135 43 135 171v398h126v-410zM498 676h-102v93h102v-93zM339 676h-102v93h102v-93z" />
    <glyph glyph-name="aacute" unicode="&#xe1;" horiz-adv-x="522" 
d="M464 0h-107l-17 46c-25 -24 -69 -59 -119 -59c-116 0 -178 46 -178 133c0 93 56 167 251 167h38v22c0 35 -7 74 -65 74c-63 0 -123 -19 -167 -40l-39 93c61 22 140 34 212 34c101 0 173 -46 173 -146v-184c0 -36 12 -89 18 -140zM333 121v90h-25
c-108 0 -147 -31 -147 -86c0 -39 39 -51 81 -51s73 22 91 47zM364 647l-131 -117h-78l96 117h113z" />
    <glyph glyph-name="agrave" unicode="&#xe0;" horiz-adv-x="522" 
d="M464 0h-107l-17 46c-25 -24 -69 -59 -119 -59c-116 0 -178 46 -178 133c0 93 56 167 251 167h38v22c0 35 -7 74 -65 74c-63 0 -123 -19 -167 -40l-39 93c61 22 140 34 212 34c101 0 173 -46 173 -146v-184c0 -36 12 -89 18 -140zM333 121v90h-25
c-108 0 -147 -31 -147 -86c0 -39 39 -51 81 -51s73 22 91 47zM320 530h-78l-131 117h113z" />
    <glyph glyph-name="acircumflex" unicode="&#xe2;" horiz-adv-x="522" 
d="M464 0h-107l-17 46c-25 -24 -69 -59 -119 -59c-116 0 -178 46 -178 133c0 93 56 167 251 167h38v22c0 35 -7 74 -65 74c-63 0 -123 -19 -167 -40l-39 93c61 22 140 34 212 34c101 0 173 -46 173 -146v-184c0 -36 12 -89 18 -140zM333 121v90h-25
c-108 0 -147 -31 -147 -86c0 -39 39 -51 81 -51s73 22 91 47zM379 530h-82l-53 64l-56 -64h-82l99 117h78z" />
    <glyph glyph-name="adieresis" unicode="&#xe4;" horiz-adv-x="522" 
d="M464 0h-107l-17 46c-25 -24 -69 -59 -119 -59c-116 0 -178 46 -178 133c0 93 56 167 251 167h38v22c0 35 -7 74 -65 74c-63 0 -123 -19 -167 -40l-39 93c61 22 140 34 212 34c101 0 173 -46 173 -146v-184c0 -36 12 -89 18 -140zM333 121v90h-25
c-108 0 -147 -31 -147 -86c0 -39 39 -51 81 -51s73 22 91 47zM388 528h-103v99h103v-99zM227 528h-103v99h103v-99z" />
    <glyph glyph-name="atilde" unicode="&#xe3;" horiz-adv-x="522" 
d="M464 0h-107l-17 46c-25 -24 -69 -59 -119 -59c-116 0 -178 46 -178 133c0 93 56 167 251 167h38v22c0 35 -7 74 -65 74c-63 0 -123 -19 -167 -40l-39 93c61 22 140 34 212 34c101 0 173 -46 173 -146v-184c0 -36 12 -89 18 -140zM406 594c-16 -50 -60 -81 -109 -81
c-53 0 -70 45 -101 45c-28 0 -44 -18 -51 -39l-60 28c25 58 56 75 112 75c43 0 67 -45 98 -45c28 0 46 28 62 45zM333 121v90h-25c-108 0 -147 -31 -147 -86c0 -39 39 -51 81 -51s73 22 91 47z" />
    <glyph glyph-name="aring" unicode="&#xe5;" horiz-adv-x="522" 
d="M464 0h-107l-17 46c-25 -24 -69 -59 -119 -59c-116 0 -178 46 -178 133c0 93 56 167 251 167h38v22c0 35 -7 74 -65 74c-63 0 -123 -19 -167 -40l-39 93c61 22 140 34 212 34c101 0 173 -46 173 -146v-184c0 -36 12 -89 18 -140zM332 589c0 -46 -37 -82 -83 -82
c-45 0 -83 37 -83 82c0 46 37 82 83 82c47 0 83 -35 83 -82zM333 121v90h-25c-108 0 -147 -31 -147 -86c0 -39 39 -51 81 -51s73 22 91 47zM290 590c0 23 -15 42 -41 42c-25 0 -42 -21 -42 -42c0 -19 17 -42 42 -42c28 0 41 20 41 42z" />
    <glyph glyph-name="ccedilla" unicode="&#xe7;" horiz-adv-x="459" 
d="M425 19c-29 -14 -92 -27 -133 -31l-4 -15c49 0 70 -41 70 -71c0 -79 -69 -117 -132 -117c-29 0 -75 4 -104 8l24 75c32 -4 55 -8 75 -8c24 0 51 11 51 40c0 25 -12 36 -83 36l15 58c-107 25 -161 113 -161 231c0 148 74 245 229 245c41 0 116 -19 149 -32l-39 -93
c-34 17 -77 38 -111 38c-76 0 -112 -41 -112 -158c0 -107 43 -151 111 -151c31 0 77 18 116 38z" />
    <glyph glyph-name="eacute" unicode="&#xe9;" horiz-adv-x="521" 
d="M476 185h-314c9 -73 47 -114 110 -114c43 0 95 15 143 39l37 -87c-55 -25 -125 -36 -188 -36c-148 0 -221 110 -221 237c0 106 48 246 217 246c159 0 216 -94 216 -285zM367 266c-5 87 -49 117 -108 117c-37 0 -93 -22 -97 -117h205zM394 647l-131 -117h-78l96 117h113z
" />
    <glyph glyph-name="egrave" unicode="&#xe8;" horiz-adv-x="521" 
d="M476 185h-314c9 -73 47 -114 110 -114c43 0 95 15 143 39l37 -87c-55 -25 -125 -36 -188 -36c-148 0 -221 110 -221 237c0 106 48 246 217 246c159 0 216 -94 216 -285zM367 266c-5 87 -49 117 -108 117c-37 0 -93 -22 -97 -117h205zM332 530h-78l-131 117h113z" />
    <glyph glyph-name="ecircumflex" unicode="&#xea;" horiz-adv-x="521" 
d="M476 185h-314c9 -73 47 -114 110 -114c43 0 95 15 143 39l37 -87c-55 -25 -125 -36 -188 -36c-148 0 -221 110 -221 237c0 106 48 246 217 246c159 0 216 -94 216 -285zM367 266c-5 87 -49 117 -108 117c-37 0 -93 -22 -97 -117h205zM405 530h-82l-53 64l-56 -64h-82
l99 117h78z" />
    <glyph glyph-name="edieresis" unicode="&#xeb;" horiz-adv-x="521" 
d="M476 185h-314c9 -73 47 -114 110 -114c43 0 95 15 143 39l37 -87c-55 -25 -125 -36 -188 -36c-148 0 -221 110 -221 237c0 106 48 246 217 246c159 0 216 -94 216 -285zM367 266c-5 87 -49 117 -108 117c-37 0 -93 -22 -97 -117h205zM400 534h-102v93h102v-93zM241 534
h-102v93h102v-93z" />
    <glyph glyph-name="iacute" unicode="&#xed;" horiz-adv-x="247" 
d="M180 0h-113v457h113v-457zM227 647l-131 -117h-78l96 117h113z" />
    <glyph glyph-name="igrave" unicode="&#xec;" horiz-adv-x="247" 
d="M180 0h-113v457h113v-457zM214 530h-78l-131 117h113z" />
    <glyph glyph-name="icircumflex" unicode="&#xee;" horiz-adv-x="247" 
d="M180 0h-113v457h113v-457zM268 530h-82l-53 64l-56 -64h-82l99 117h78z" />
    <glyph glyph-name="idieresis" unicode="&#xef;" horiz-adv-x="247" 
d="M180 0h-113v457h113v-457zM254 557h-102v93h102v-93zM95 557h-102v93h102v-93z" />
    <glyph glyph-name="ntilde" unicode="&#xf1;" horiz-adv-x="469" 
d="M463 0h-113v293c0 45 -4 91 -71 91c-47 0 -79 -43 -100 -86v-298h-113v360c0 38 -8 65 -12 97h104l18 -60c19 20 58 74 122 74c134 0 165 -78 165 -183v-288zM420 594c-16 -50 -60 -81 -109 -81c-53 0 -70 45 -101 45c-28 0 -44 -18 -51 -39l-60 28c25 58 56 75 112 75
c43 0 67 -45 98 -45c25 0 42 22 42 39c0 2 -1 4 -1 6z" />
    <glyph glyph-name="oacute" unicode="&#xf3;" horiz-adv-x="537" 
d="M494 231c0 -131 -61 -245 -225 -245c-165 0 -226 113 -226 245c0 127 62 240 226 240c166 0 225 -107 225 -240zM378 231c0 112 -33 153 -109 153c-72 0 -110 -41 -110 -153c0 -103 34 -158 110 -158c70 0 109 47 109 158zM390 647l-131 -117h-78l96 117h113z" />
    <glyph glyph-name="ograve" unicode="&#xf2;" horiz-adv-x="537" 
d="M494 231c0 -131 -61 -245 -225 -245c-165 0 -226 113 -226 245c0 127 62 240 226 240c166 0 225 -107 225 -240zM378 231c0 112 -33 153 -109 153c-72 0 -110 -41 -110 -153c0 -103 34 -158 110 -158c70 0 109 47 109 158zM354 530h-78l-131 117h113z" />
    <glyph glyph-name="ocircumflex" unicode="&#xf4;" horiz-adv-x="537" 
d="M494 231c0 -131 -61 -245 -225 -245c-165 0 -226 113 -226 245c0 127 62 240 226 240c166 0 225 -107 225 -240zM378 231c0 112 -33 153 -109 153c-72 0 -110 -41 -110 -153c0 -103 34 -158 110 -158c70 0 109 47 109 158zM406 530h-82l-53 64l-56 -64h-82l99 117h78z
" />
    <glyph glyph-name="odieresis" unicode="&#xf6;" horiz-adv-x="537" 
d="M494 231c0 -131 -61 -245 -225 -245c-165 0 -226 113 -226 245c0 127 62 240 226 240c166 0 225 -107 225 -240zM378 231c0 112 -33 153 -109 153c-72 0 -110 -41 -110 -153c0 -103 34 -158 110 -158c70 0 109 47 109 158zM402 534h-102v93h102v-93zM243 534h-102v93h102
v-93z" />
    <glyph glyph-name="otilde" unicode="&#xf5;" horiz-adv-x="537" 
d="M494 231c0 -131 -61 -245 -225 -245c-165 0 -226 113 -226 245c0 127 62 240 226 240c166 0 225 -107 225 -240zM378 231c0 112 -33 153 -109 153c-72 0 -110 -41 -110 -153c0 -103 34 -158 110 -158c70 0 109 47 109 158zM422 594c-16 -50 -60 -81 -109 -81
c-53 0 -70 45 -101 45c-28 0 -44 -18 -51 -39l-60 28c25 58 56 75 112 75c43 0 67 -45 98 -45c28 0 46 28 51 45z" />
    <glyph glyph-name="uacute" unicode="&#xfa;" horiz-adv-x="522" 
d="M468 0h-104l-18 60c-19 -20 -54 -74 -118 -74c-127 0 -162 78 -162 183v288h113v-293c0 -44 5 -91 68 -91c47 0 75 43 96 86v298h113v-360c0 -38 8 -65 12 -97zM380 647l-131 -117h-78l96 117h113z" />
    <glyph glyph-name="ugrave" unicode="&#xf9;" horiz-adv-x="522" 
d="M338 530h-78l-131 117h113zM468 0h-104l-18 60c-19 -20 -54 -74 -118 -74c-127 0 -162 78 -162 183v288h113v-293c0 -44 5 -91 68 -91c47 0 75 43 96 86v298h113v-360c0 -38 8 -65 12 -97z" />
    <glyph glyph-name="ucircumflex" unicode="&#xfb;" horiz-adv-x="522" 
d="M468 0h-104l-18 60c-19 -20 -54 -74 -118 -74c-127 0 -162 78 -162 183v288h113v-293c0 -44 5 -91 68 -91c47 0 75 43 96 86v298h113v-360c0 -38 8 -65 12 -97zM394 530h-82l-53 64l-56 -64h-82l99 117h78z" />
    <glyph glyph-name="udieresis" unicode="&#xfc;" horiz-adv-x="522" 
d="M468 0h-104l-18 60c-19 -20 -54 -74 -118 -74c-127 0 -162 78 -162 183v288h113v-293c0 -44 5 -91 68 -91c47 0 75 43 96 86v298h113v-360c0 -38 8 -65 12 -97zM391 534h-102v93h102v-93zM232 534h-102v93h102v-93z" />
    <glyph glyph-name="dagger" unicode="&#x2020;" 
d="M503 317h-185v-497h-96v497h-185v86h185v217h96v-217h185v-86z" />
    <glyph glyph-name="degree" unicode="&#xb0;" horiz-adv-x="430" 
d="M385 448c0 -97 -79 -165 -171 -165s-169 68 -169 165s78 168 170 168s170 -71 170 -168zM311 448c0 58 -40 99 -96 99s-97 -41 -97 -99c0 -53 45 -96 96 -96s97 43 97 96z" />
    <glyph glyph-name="cent" unicode="&#xa2;" horiz-adv-x="459" 
d="M425 19c-24 -12 -74 -22 -113 -28v-91h-91v91c-118 19 -178 110 -178 234c0 131 58 222 178 241v94h91v-94c39 -6 85 -19 109 -28l-39 -93c-21 11 -46 22 -70 30v-294c24 7 50 19 74 31zM221 84v291c-42 -17 -62 -63 -62 -150c0 -79 23 -123 62 -141z" />
    <glyph glyph-name="sterling" unicode="&#xa3;" 
d="M518 0h-463v100h64v199h-75v87h75v6c0 221 151 263 302 281l33 -104c-111 -6 -209 -7 -209 -177v-6h151v-87h-151v-199h273v-100z" />
    <glyph glyph-name="section" unicode="&#xa7;" horiz-adv-x="451" 
d="M416 314c0 -47 -19 -79 -49 -101c19 -22 29 -51 29 -90c0 -107 -98 -139 -195 -139c-53 0 -115 16 -160 32l39 93c40 -17 70 -38 123 -38c70 0 77 24 77 51c0 79 -245 32 -245 211c0 51 23 86 56 104c-23 20 -40 48 -40 87c0 110 100 136 194 136c42 0 92 -11 147 -29
l-39 -92c-35 16 -62 34 -107 34c-51 0 -79 -13 -79 -46c0 -76 249 -36 249 -213zM302 313c0 41 -53 57 -115 76c-27 -9 -38 -28 -38 -55c0 -37 67 -49 128 -70c22 13 25 31 25 49z" />
    <glyph glyph-name="bullet" unicode="&#x2022;" 
d="M413 324c0 -80 -63 -144 -143 -144c-81 0 -143 63 -143 144c0 80 63 143 143 143s143 -63 143 -143z" />
    <glyph glyph-name="paragraph" unicode="&#xb6;" 
d="M516 -188h-96v748h-100c-61 0 -109 -41 -109 -120c0 -62 53 -110 98 -122v-506h-96v446c-128 20 -173 116 -173 195c0 69 25 194 191 194h285v-835z" />
    <glyph glyph-name="germandbls" unicode="&#xdf;" horiz-adv-x="537" 
d="M492 125c0 -166 -154 -221 -290 -221l39 96c90 0 135 61 135 127c0 124 -100 140 -156 156v89c31 20 96 57 96 131c0 44 -34 67 -71 67c-34 0 -66 -16 -66 -88v-482h-113v471c0 126 68 186 179 186c84 0 187 -28 187 -157c0 -113 -97 -147 -122 -164
c53 -22 182 -47 182 -211z" />
    <glyph glyph-name="registered" unicode="&#xae;" horiz-adv-x="720" 
d="M695 324c0 -188 -148 -334 -335 -334s-335 146 -335 334s148 334 335 334c190 0 335 -144 335 -334zM626 324c0 149 -116 271 -266 271c-151 0 -266 -121 -266 -271c0 -148 118 -271 266 -271s266 123 266 271zM523 129h-92l-119 162h-16v-162h-76v390h145
c62 0 132 -22 132 -114c0 -52 -23 -101 -96 -112zM420 405c0 32 -17 54 -52 54h-72v-110h73c35 0 51 24 51 56z" />
    <glyph glyph-name="copyright" unicode="&#xa9;" horiz-adv-x="720" 
d="M695 324c0 -188 -148 -334 -335 -334s-335 146 -335 334s148 334 335 334c190 0 335 -144 335 -334zM626 324c0 149 -116 271 -266 271c-151 0 -266 -121 -266 -271c0 -148 118 -271 266 -271s266 123 266 271zM471 135c-34 -12 -65 -18 -109 -18
c-131 0 -179 83 -179 205c0 108 43 202 181 202c34 0 74 -5 103 -15l-24 -64c-25 11 -50 21 -79 21c-76 0 -103 -53 -103 -143c0 -95 26 -148 100 -148c32 0 56 11 87 24z" />
    <glyph glyph-name="trademark" unicode="&#x2122;" horiz-adv-x="925" 
d="M845 291h-74v282l-109 -282h-78l-109 282v-282h-72v356h124l99 -263l100 263h119v-356zM357 593h-107v-302h-75v302h-107v54h289v-54z" />
    <glyph glyph-name="acute" unicode="&#xb4;" horiz-adv-x="247" 
d="M228 647l-131 -117h-78l96 117h113z" />
    <glyph glyph-name="dieresis" unicode="&#xa8;" horiz-adv-x="247" 
d="M254 554h-102v93h102v-93zM95 554h-102v93h102v-93z" />
    <glyph glyph-name="AE" unicode="&#xc6;" horiz-adv-x="988" 
d="M894 0h-374l-26 173h-228l-93 -173h-144l367 647h489v-97h-334l27 -167h286v-97h-269l33 -189h266v-97zM480 268l-35 240l-128 -240h163z" />
    <glyph glyph-name="Oslash" unicode="&#xd8;" horiz-adv-x="725" 
d="M699 628l-79 -93c33 -57 46 -130 46 -214c0 -192 -77 -340 -302 -340c-76 0 -135 16 -180 44l-86 -101l-82 75l90 106c-34 58 -47 132 -47 216c0 190 80 339 306 339c75 0 133 -16 178 -44l74 87zM470 531c-27 22 -62 32 -106 32c-119 0 -175 -72 -175 -242
c0 -42 3 -78 9 -108zM536 321c0 41 -3 75 -9 105l-272 -318c27 -21 64 -30 109 -30c124 0 172 82 172 243z" />
    <glyph glyph-name="plusminus" unicode="&#xb1;" 
d="M488 238h-170v-118h-96v118h-170v86h170v107h96v-107h170v-86zM495 0h-450v86h450v-86z" />
    <glyph glyph-name="yen" unicode="&#xa5;" 
d="M540 647l-186 -319h104v-86h-126v-51h126v-86h-126v-105h-126v105h-126v86h126v51h-126v86h103l-183 319h140l134 -251l134 251h132z" />
    <glyph glyph-name="mu" unicode="&#xb5;" 
d="M477 0h-104l-18 60c-19 -20 -54 -74 -118 -74c-18 0 -37 4 -49 11v-177h-113v637h113v-293c0 -44 5 -91 68 -91c47 0 75 53 96 96v288h113v-360c0 -38 8 -65 12 -97z" />
    <glyph glyph-name="mu" unicode="&#x3bc;" 
d="M477 0h-104l-18 60c-19 -20 -54 -74 -118 -74c-18 0 -37 4 -49 11v-177h-113v637h113v-293c0 -44 5 -91 68 -91c47 0 75 53 96 96v288h113v-360c0 -38 8 -65 12 -97z" />
    <glyph glyph-name="ordfeminine" unicode="&#xaa;" 
d="M400 391h-70l-10 26c-15 -13 -41 -33 -71 -33c-70 0 -107 25 -107 73c0 51 34 94 151 94h22v12c0 19 -4 35 -39 35c-38 0 -74 -10 -100 -22l-23 55c37 12 84 19 127 19c61 0 109 -25 109 -80v-102c0 -20 7 -49 11 -77zM316 464v38h-15c-65 0 -86 -12 -86 -42
c0 -21 21 -24 46 -24s44 14 55 28z" />
    <glyph glyph-name="ordmasculine" unicode="&#xba;" 
d="M410 528c0 -72 -41 -135 -139 -135c-99 0 -139 62 -139 135c0 70 41 132 139 132c100 0 139 -59 139 -132zM336 528c0 61 -24 80 -65 80c-39 0 -66 -19 -66 -80c0 -57 23 -83 66 -83c37 0 65 22 65 83z" />
    <glyph glyph-name="ae" unicode="&#xe6;" horiz-adv-x="805" 
d="M760 182h-314c9 -73 47 -111 110 -111c43 0 92 15 140 39l37 -87c-55 -25 -122 -36 -185 -36c-84 0 -147 39 -167 83c-40 -46 -92 -83 -160 -83c-116 0 -178 46 -178 133c0 93 56 167 251 167h38v22c0 35 -7 74 -65 74c-63 0 -123 -19 -167 -40l-39 93
c61 22 140 34 212 34c57 0 104 -21 134 -52c31 28 74 52 135 52c168 0 218 -97 218 -288zM647 266c-5 87 -45 117 -104 117c-37 0 -93 -22 -97 -117h201zM333 131v74h-25c-108 0 -147 -25 -147 -80c0 -39 39 -51 81 -51s73 32 91 57z" />
    <glyph glyph-name="oslash" unicode="&#xf8;" horiz-adv-x="537" 
d="M516 425l-51 -56c20 -39 29 -87 29 -138c0 -131 -61 -245 -225 -245c-52 0 -94 11 -127 31l-51 -56l-75 73l55 61c-20 39 -28 86 -28 136c0 127 62 240 226 240c50 0 90 -10 122 -27l50 54zM326 372c-15 8 -34 12 -57 12c-72 0 -110 -41 -110 -153c0 -14 1 -27 2 -39z
M378 231c0 15 -1 28 -2 41l-167 -182c16 -11 36 -17 60 -17c70 0 109 47 109 158z" />
    <glyph glyph-name="questiondown" unicode="&#xbf;" horiz-adv-x="460" 
d="M332 537h-120v110h120v-110zM429 20c-43 -15 -128 -30 -176 -30c-83 0 -202 15 -202 167c0 119 165 142 165 234v80h112v-85c0 -136 -156 -146 -156 -229c0 -48 18 -70 81 -70c37 0 122 17 158 35z" />
    <glyph glyph-name="exclamdown" unicode="&#xa1;" horiz-adv-x="270" 
d="M195 537h-120v110h120v-110zM191 0h-112v465h112v-465z" />
    <glyph glyph-name="logicalnot" unicode="&#xac;" 
d="M505 88h-96v174h-379v86h475v-260z" />
    <glyph glyph-name="florin" unicode="&#x192;" 
d="M434 568c-73 -2 -112 -32 -120 -80l-5 -31h84l-13 -77h-84l-97 -560h-101l97 560h-69l13 77h69l6 38c21 132 138 155 215 170z" />
    <glyph glyph-name="guillemotleft" unicode="&#xab;" horiz-adv-x="410" 
d="M388 452l-97 -180l96 -180h-103l-93 178l93 182h104zM220 452l-97 -180l96 -180h-103l-93 178l93 182h104z" />
    <glyph glyph-name="guillemotright" unicode="&#xbb;" horiz-adv-x="410" 
d="M388 270l-93 -178h-103l96 180l-97 180h104zM220 270l-93 -178h-103l96 180l-97 180h104z" />
    <glyph glyph-name="ellipsis" unicode="&#x2026;" horiz-adv-x="810" 
d="M735 0h-120v110h120v-110zM465 0h-120v110h120v-110zM195 0h-120v110h120v-110z" />
    <glyph glyph-name="nbspace" unicode="&#xa0;" horiz-adv-x="270" 
 />
    <glyph glyph-name="Agrave" unicode="&#xc0;" horiz-adv-x="681" 
d="M652 0h-139l-58 173h-231l-61 -173h-134l263 647h116zM423 268l-79 239l-85 -239h164zM449 692h-78l-131 117h113z" />
    <glyph glyph-name="Atilde" unicode="&#xc3;" horiz-adv-x="681" 
d="M652 0h-139l-58 173h-231l-61 -173h-134l263 647h116zM423 268l-79 239l-85 -239h164zM511 756c-16 -50 -60 -81 -109 -81c-53 0 -70 45 -101 45c-28 0 -44 -18 -51 -39l-60 28c25 58 56 75 112 75c43 0 67 -45 98 -45c28 0 46 28 51 45z" />
    <glyph glyph-name="Otilde" unicode="&#xd5;" horiz-adv-x="725" 
d="M666 321c0 -192 -77 -340 -302 -340c-233 0 -305 146 -305 340c0 190 80 339 306 339c223 0 301 -140 301 -339zM536 321c0 172 -55 242 -172 242c-119 0 -175 -72 -175 -242c0 -178 55 -243 175 -243c124 0 172 82 172 243zM530 756c-16 -50 -60 -81 -109 -81
c-53 0 -70 45 -101 45c-28 0 -44 -18 -51 -39l-60 28c25 58 56 75 112 75c43 0 67 -45 98 -45c28 0 46 28 51 45z" />
    <glyph glyph-name="OE" unicode="&#x152;" horiz-adv-x="1015" 
d="M921 0h-434c-34 -12 -75 -19 -123 -19c-233 0 -305 146 -305 340c0 190 80 339 306 339c40 0 75 -4 105 -13h442v-97h-307c28 -45 44 -102 49 -167h237v-97h-236c-3 -73 -18 -138 -49 -189h315v-97zM526 321c0 172 -44 242 -162 242c-119 0 -175 -72 -175 -242
c0 -178 55 -243 175 -243c124 0 162 82 162 243z" />
    <glyph glyph-name="oe" unicode="&#x153;" horiz-adv-x="851" 
d="M806 182h-314c9 -73 47 -111 110 -111c43 0 92 15 140 39l37 -87c-55 -25 -122 -36 -185 -36c-71 0 -123 27 -158 67c-35 -41 -89 -68 -167 -68c-165 0 -226 113 -226 245c0 127 62 240 226 240c78 0 132 -26 167 -65c32 37 80 64 152 64c168 0 218 -97 218 -288z
M693 266c-5 87 -45 117 -104 117c-37 0 -93 -22 -97 -117h201zM378 231c0 112 -33 153 -109 153c-72 0 -110 -41 -110 -153c0 -103 34 -158 110 -158c70 0 109 47 109 158z" />
    <glyph glyph-name="endash" unicode="&#x2013;" horiz-adv-x="500" 
d="M501 195h-502v86h502v-86z" />
    <glyph glyph-name="emdash" unicode="&#x2014;" horiz-adv-x="1000" 
d="M1001 187h-1002v94h1002v-94z" />
    <glyph glyph-name="quotedblleft" unicode="&#x201c;" horiz-adv-x="410" 
d="M370 648l-85 -188h-90l98 188h77zM215 648l-85 -188h-90l99 188h76z" />
    <glyph glyph-name="quotedblright" unicode="&#x201d;" horiz-adv-x="410" 
d="M370 648l-99 -188h-76l85 188h90zM215 648l-98 -188h-77l85 188h90z" />
    <glyph glyph-name="quoteleft" unicode="&#x2018;" horiz-adv-x="270" 
d="M220 648l-85 -188h-90l99 188h76z" />
    <glyph glyph-name="quoteright" unicode="&#x2019;" horiz-adv-x="270" 
d="M220 648l-98 -188h-77l85 188h90z" />
    <glyph glyph-name="divide" unicode="&#xf7;" 
d="M330 322h-120v110h120v-110zM495 182h-450v76h450v-76zM330 8h-120v110h120v-110z" />
    <glyph glyph-name="ydieresis" unicode="&#xff;" horiz-adv-x="530" 
d="M494 457l-191 -530c-28 -78 -75 -138 -174 -172l-38 93c55 15 78 38 88 65l40 106l-183 438h121l117 -311l102 311h118zM407 534h-102v93h102v-93zM248 534h-102v93h102v-93z" />
    <glyph glyph-name="Ydieresis" unicode="&#x178;" horiz-adv-x="619" 
d="M605 647l-233 -356v-291h-126v287l-232 360h143l157 -248l155 248h136zM447 714h-101v95h101v-95zM290 714h-100v95h100v-95z" />
    <glyph glyph-name="currency" unicode="&#xa4;" 
d="M562 634l-33 -103c-42 18 -90 32 -138 32c-87 0 -131 -42 -150 -117h261l-31 -97h-242v-43h229l-31 -97h-189c16 -85 58 -131 147 -131c54 0 103 24 155 45v-118c-38 -13 -80 -24 -153 -24c-173 0 -254 88 -279 228h-109l31 97h69v43h-100l31 97h81
c27 123 105 214 280 214c56 0 122 -10 171 -26z" />
    <glyph glyph-name="guilsinglleft" unicode="&#x2039;" horiz-adv-x="270" 
d="M239 452l-97 -180l96 -180h-103l-93 178l93 182h104z" />
    <glyph glyph-name="guilsinglright" unicode="&#x203a;" horiz-adv-x="270" 
d="M239 270l-93 -178h-103l96 180l-97 180h104z" />
    <glyph glyph-name="daggerdbl" unicode="&#x2021;" 
d="M503 155h-185v-155h-96v155h-185v86h185v168h-185v86h185v152h96v-152h185v-86h-185v-168h185v-86z" />
    <glyph glyph-name="periodcentered" unicode="&#xb7;" horiz-adv-x="270" 
d="M190 216h-110v111h110v-111z" />
    <glyph glyph-name="quotesinglbase" unicode="&#x201a;" horiz-adv-x="270" 
d="M220 100l-98 -188h-77l85 188h90z" />
    <glyph glyph-name="quotedblbase" unicode="&#x201e;" horiz-adv-x="410" 
d="M370 100l-99 -188h-76l85 188h90zM215 100l-98 -188h-77l85 188h90z" />
    <glyph glyph-name="perthousand" unicode="&#x2030;" horiz-adv-x="1150" 
d="M1107 166c0 -107 -34 -179 -145 -179c-110 0 -143 71 -143 179c0 107 42 172 144 172c110 0 144 -65 144 -172zM757 166c0 -107 -34 -179 -145 -179c-110 0 -143 71 -143 179c0 107 42 172 144 172c110 0 144 -65 144 -172zM625 629l-363 -629h-97l362 629h98zM332 488
c0 -107 -35 -179 -146 -179c-110 0 -143 71 -143 179c0 107 42 172 144 172c110 0 145 -65 145 -172zM1027 166c0 76 -10 114 -64 114c-55 0 -63 -49 -63 -114c0 -78 7 -121 62 -121c54 0 65 47 65 121zM677 166c0 76 -10 114 -64 114c-55 0 -63 -49 -63 -114
c0 -78 7 -121 62 -121c54 0 65 47 65 121zM251 488c0 76 -10 114 -64 114c-55 0 -63 -49 -63 -114c0 -78 7 -121 62 -121c54 0 65 47 65 121z" />
    <glyph glyph-name="Acircumflex" unicode="&#xc2;" horiz-adv-x="681" 
d="M652 0h-139l-58 173h-231l-61 -173h-134l263 647h116zM423 268l-79 239l-85 -239h164zM483 694h-82l-53 64l-56 -64h-82l99 117h78z" />
    <glyph glyph-name="Ecircumflex" unicode="&#xca;" horiz-adv-x="581" 
d="M487 0h-393v647h384v-97h-258v-167h237v-97h-237v-189h267v-97zM421 692h-82l-53 64l-56 -64h-82l99 117h78z" />
    <glyph glyph-name="Aacute" unicode="&#xc1;" horiz-adv-x="681" 
d="M652 0h-139l-58 173h-231l-61 -173h-134l263 647h116zM423 268l-79 239l-85 -239h164zM456 809l-131 -117h-78l97 117h112z" />
    <glyph glyph-name="Edieresis" unicode="&#xcb;" horiz-adv-x="581" 
d="M487 0h-393v647h384v-97h-258v-167h237v-97h-237v-189h267v-97zM427 676h-102v93h102v-93zM268 676h-102v93h102v-93z" />
    <glyph glyph-name="Egrave" unicode="&#xc8;" horiz-adv-x="581" 
d="M487 0h-393v647h384v-97h-258v-167h237v-97h-237v-189h267v-97zM379 692h-78l-131 117h113z" />
    <glyph glyph-name="Iacute" unicode="&#xcd;" horiz-adv-x="290" 
d="M208 0h-126v647h126v-647zM255 809l-131 -117h-78l96 117h113z" />
    <glyph glyph-name="Icircumflex" unicode="&#xce;" horiz-adv-x="290" 
d="M208 0h-126v647h126v-647zM282 688h-82l-53 64l-56 -64h-82l99 117h78z" />
    <glyph glyph-name="Idieresis" unicode="&#xcf;" horiz-adv-x="290" 
d="M208 0h-126v647h126v-647zM278 716h-102v93h102v-93zM119 716h-102v93h102v-93z" />
    <glyph glyph-name="Igrave" unicode="&#xcc;" horiz-adv-x="290" 
d="M208 0h-126v647h126v-647zM224 692h-78l-131 117h113z" />
    <glyph glyph-name="Oacute" unicode="&#xd3;" horiz-adv-x="725" 
d="M666 321c0 -192 -77 -340 -302 -340c-233 0 -305 146 -305 340c0 190 80 339 306 339c223 0 301 -140 301 -339zM536 321c0 172 -55 242 -172 242c-119 0 -175 -72 -175 -242c0 -178 55 -243 175 -243c124 0 172 82 172 243zM474 809l-131 -117h-78l96 117h113z" />
    <glyph glyph-name="Ocircumflex" unicode="&#xd4;" horiz-adv-x="725" 
d="M666 321c0 -192 -77 -340 -302 -340c-233 0 -305 146 -305 340c0 190 80 339 306 339c223 0 301 -140 301 -339zM536 321c0 172 -55 242 -172 242c-119 0 -175 -72 -175 -242c0 -178 55 -243 175 -243c124 0 172 82 172 243zM497 692h-82l-53 64l-56 -64h-82l99 117h78z
" />
    <glyph glyph-name="Ograve" unicode="&#xd2;" horiz-adv-x="725" 
d="M666 321c0 -192 -77 -340 -302 -340c-233 0 -305 146 -305 340c0 190 80 339 306 339c223 0 301 -140 301 -339zM536 321c0 172 -55 242 -172 242c-119 0 -175 -72 -175 -242c0 -178 55 -243 175 -243c124 0 172 82 172 243zM427 692h-78l-131 117h113z" />
    <glyph glyph-name="Uacute" unicode="&#xda;" horiz-adv-x="723" 
d="M629 237c0 -172 -94 -256 -261 -256c-185 0 -274 85 -274 258v408h126v-398c0 -145 67 -171 148 -171c79 0 135 43 135 171v398h126v-410zM491 794l-131 -117h-78l96 117h113z" />
    <glyph glyph-name="Ucircumflex" unicode="&#xdb;" horiz-adv-x="723" 
d="M629 237c0 -172 -94 -256 -261 -256c-185 0 -274 85 -274 258v408h126v-398c0 -145 67 -171 148 -171c79 0 135 43 135 171v398h126v-410zM499 692h-82l-53 64l-56 -64h-82l99 117h78z" />
    <glyph glyph-name="Ugrave" unicode="&#xd9;" horiz-adv-x="723" 
d="M629 237c0 -172 -94 -256 -261 -256c-185 0 -274 85 -274 258v408h126v-398c0 -145 67 -171 148 -171c79 0 135 43 135 171v398h126v-410zM427 692h-78l-131 117h113z" />
    <glyph glyph-name="circumflex" unicode="&#x2c6;" horiz-adv-x="247" 
d="M260 530h-82l-53 64l-56 -64h-82l99 117h78z" />
    <glyph glyph-name="tilde" unicode="&#x2dc;" horiz-adv-x="247" 
d="M284 594c-16 -50 -60 -81 -109 -81c-53 0 -70 45 -101 45c-28 0 -44 -18 -51 -39l-60 28c25 58 56 75 112 75c43 0 67 -45 98 -45c28 0 46 28 51 45z" />
    <glyph glyph-name="macron" unicode="&#xaf;" horiz-adv-x="247" 
d="M253 544h-259v83h259v-83z" />
    <glyph glyph-name="cedilla" unicode="&#xb8;" horiz-adv-x="247" 
d="M237 -98c0 -79 -70 -117 -133 -117c-29 0 -75 4 -104 8l24 78c32 -4 55 -8 75 -8c24 0 48 8 48 37c0 25 -9 36 -80 36l21 79h89l-10 -40c49 0 70 -43 70 -73z" />
    <glyph glyph-name="Eth" unicode="&#xd0;" horiz-adv-x="673" 
d="M614 326c0 -238 -96 -326 -309 -326h-211v319h-65v87h65v241h211c209 0 309 -85 309 -321zM484 325c0 204 -80 225 -179 225h-85v-144h101v-87h-101v-222h94c100 0 170 39 170 228z" />
    <glyph glyph-name="thorn" unicode="&#xfe;" horiz-adv-x="531" 
d="M488 231c0 -131 -68 -244 -205 -244c-57 0 -93 36 -107 59l-18 -247h-104c7 54 12 283 12 341v517h113v-260c26 36 64 73 120 73c137 0 189 -112 189 -239zM372 229c0 124 -43 154 -94 154c-49 0 -77 -45 -101 -88v-157c20 -43 49 -64 88 -64c57 0 107 34 107 155z" />
    <glyph glyph-name="Thorn" unicode="&#xde;" horiz-adv-x="600" 
d="M550 332c0 -147 -88 -200 -218 -200h-112v-132h-126v647h126v-121h101c132 0 229 -46 229 -194zM422 332c0 89 -52 97 -103 97h-99v-200h104c54 0 98 23 98 103z" />
  </font>
</defs>
</svg>
