<?xml version="1.0" standalone="no"?>
<!DOCTYPE svg PUBLIC "-//W3C//DTD SVG 1.1//EN" "http://www.w3.org/Graphics/SVG/1.1/DTD/svg11.dtd" >
<svg>
<metadata>
Created by FontForge 20110222 at Mon Mar  7 11:39:24 2011
 By www-data
4.1 (c)1986-92 by Richard A. Ware. All Rights Reserved.
</metadata>
<defs>
<font id="AlexandriaFLF-Bold" horiz-adv-x="592" >
  <font-face 
    font-family="AlexandriaFLF"
    font-weight="700"
    font-stretch="normal"
    units-per-em="1000"
    panose-1="2 0 8 3 6 0 0 2 0 4"
    ascent="800"
    descent="-200"
    x-height="515"
    cap-height="714"
    bbox="1 -204 1169 879"
    underline-thickness="25"
    underline-position="-121"
    unicode-range="U+0020-2122"
  />
    <missing-glyph />
    <glyph glyph-name="space" unicode=" " horiz-adv-x="276" 
 />
    <glyph glyph-name="exclam" unicode="!" horiz-adv-x="235" 
d="M168 714h-97v-535h97v535zM179 50q0 25 -17.5 42.5t-42.5 17.5t-42.5 -17.5t-17.5 -42.5t17.5 -42.5t42.5 -17.5t42.5 17.5t17.5 42.5z" />
    <glyph glyph-name="quotedbl" unicode="&#x22;" horiz-adv-x="301" 
d="M252 748h-61l12 -192h37zM120 748h-61l12 -192h37z" />
    <glyph glyph-name="numbersign" unicode="#" horiz-adv-x="658" 
d="M327 681h-72l-29 -120h-134l-21 -69h136l-28 -114h-123l-20 -70h124l-29 -120h71l30 120h130l-30 -120h71l31 120h134l21 70h-138l30 114h128l21 69h-132l30 120h-72l-29 -120h-130zM280 492h129l-29 -114h-130z" />
    <glyph glyph-name="dollar" unicode="$" horiz-adv-x="536" 
d="M314 -61v58q39 4 75 18.5t63 40t43.5 62.5t16.5 85q0 46 -14.5 81.5t-41 62t-63 46t-79.5 33.5v208q28 -6 52 -16.5t43 -23.5v-52h82v172h-82v-31q-18 9 -40 18.5t-55 13.5v55h-81v-54q-38 -5 -72.5 -19t-61 -37t-42 -54t-15.5 -68q0 -46 15 -78t41 -54t60.5 -36
t74.5 -24v-267q-21 4 -40.5 13.5t-34.5 20t-25.5 21t-14.5 17.5v51h-80v-202h81v45q19 -15 45.5 -29.5t68.5 -19.5v-57h81zM314 323q42 -17 74 -48t32 -76q0 -47 -30.5 -78.5t-75.5 -39.5v242zM233 634v-188q-20 6 -38 13.5t-31.5 18.5t-21.5 25.5t-8 34.5q0 41 29 64.5
t70 31.5z" />
    <glyph glyph-name="percent" unicode="%" horiz-adv-x="816" 
d="M637 714h-75l-388 -714h75zM387 546q0 37 -14 69t-38 56t-56 38t-69 14t-69 -14t-56 -38t-38 -56t-14 -69t14 -69t38 -56t56 -38t69 -14t69 14t56 38t38 56t14 69zM99 547q0 23 9 43t24 35t35 24t43 9t43 -9t35 -24t24 -35t9 -43t-9 -43t-24 -35t-35 -24t-43 -9t-43 9
t-35 24t-24 35t-9 43zM789 164q0 37 -14 69t-38 56t-56 38t-69 14t-69 -14t-56 -38t-38 -56t-14 -69t14 -69t38 -56t56 -38t69 -14t69 14t56 38t38 56t14 69zM501 165q0 23 9 43t24 35t35 24t43 9t43 -9t35 -24t24 -35t9 -43t-9 -43t-24 -35t-35 -24t-43 -9t-43 9t-35 24
t-24 35t-9 43z" />
    <glyph glyph-name="ampersand" unicode="&#x26;" horiz-adv-x="665" 
d="M120 207q0 16 4.5 34.5t16.5 39t33 41.5t54 44l146 -219q-26 -20 -57.5 -38t-77.5 -18q-30 0 -52 11t-37 28t-22.5 37.5t-7.5 39.5zM316 621q15 0 31 -1.5t30.5 -4t26.5 -5.5t19 -7v-67h82v125q-26 17 -77 31t-117 14q-53 0 -86 -15t-52.5 -36.5t-26.5 -46.5t-7 -45
q0 -34 11.5 -63.5t22.5 -49.5l10 -17q-42 -31 -72 -57.5t-49.5 -54.5t-28.5 -59.5t-9 -71.5q0 -50 18.5 -86.5t47 -60.5t62.5 -35.5t66 -11.5q40 0 72.5 7t58 17.5t45.5 23t35 22.5l46 -66h121l-93 143q24 32 46 90t29 151h63v81h-208v-81h56q-2 -24 -5.5 -48t-9 -46
t-13 -39.5t-15.5 -29.5l-180 275q-11 17 -18 34t-7 34q0 26 17 41.5t58 15.5z" />
    <glyph glyph-name="quotesingle" unicode="'" horiz-adv-x="179" 
d="M122 743h-61l12 -192h37z" />
    <glyph glyph-name="parenleft" unicode="(" horiz-adv-x="321" 
d="M256 734l-55 30q-38 -54 -64 -107.5t-42 -106t-23 -104.5t-7 -105t7 -105.5t23 -105.5t42 -107t64 -110l55 31q-57 97 -83 196t-26 201q0 101 25 200t84 193z" />
    <glyph glyph-name="parenright" unicode=")" horiz-adv-x="321" 
d="M259 341q0 106 -30 210t-106 213l-55 -30q59 -94 84 -193t25 -200q0 -102 -26 -201t-83 -196l55 -31q76 112 106 217t30 211z" />
    <glyph glyph-name="asterisk" unicode="*" horiz-adv-x="324" 
d="M156 607q-8 8 -20 20.5t-26 24t-28.5 20t-26.5 8.5q-9 0 -15 -7t-6 -16q0 -13 14 -23t33 -17.5t38.5 -12t30.5 -7.5q-11 -2 -30.5 -7t-39 -12.5t-34 -18t-14.5 -23.5q0 -10 7.5 -16.5t15.5 -6.5q12 0 26 8.5t28.5 20.5t26.5 24.5t20 20.5q-6 -23 -12.5 -46t-6.5 -48
q0 -17 5.5 -28.5t19.5 -11.5t19.5 11.5t5.5 28.5q0 28 -5.5 49.5t-13.5 44.5q7 -8 19 -20.5t26 -24t28.5 -20t27.5 -8.5q10 0 15.5 7t5.5 16q0 13 -14.5 23.5t-34 18t-38.5 12t-29 6.5q10 3 30 7.5t39.5 12t34 18t14.5 23.5q0 10 -7.5 16.5t-15.5 6.5q-12 0 -27 -9t-29 -21
t-26 -24.5t-19 -19.5q6 20 12.5 45t6.5 51q0 16 -5.5 27.5t-19.5 11.5t-19.5 -11.5t-5.5 -27.5q0 -26 5.5 -50.5t13.5 -45.5z" />
    <glyph glyph-name="plus" unicode="+" horiz-adv-x="434" 
d="M185 315h-128v-71h128v-128h71v128h128v71h-128v128h-71v-128z" />
    <glyph glyph-name="comma" unicode="," horiz-adv-x="230" 
d="M196 69h-86l-69 -187h49z" />
    <glyph glyph-name="hyphen" unicode="-" horiz-adv-x="369" 
d="M305 321h-232v-72h232v72z" />
    <glyph glyph-name="period" unicode="." horiz-adv-x="235" 
d="M179 50q0 25 -17.5 42.5t-42.5 17.5t-42.5 -17.5t-17.5 -42.5t17.5 -42.5t42.5 -17.5t42.5 17.5t17.5 42.5z" />
    <glyph glyph-name="slash" unicode="/" horiz-adv-x="306" 
d="M304 745h-61l-230 -791h61z" />
    <glyph glyph-name="zero" unicode="0" 
d="M34 357q0 -66 15.5 -132t48.5 -118t83.5 -84.5t119.5 -32.5q70 0 120 32.5t82.5 85t48 118t15.5 131.5t-16 131.5t-48.5 117.5t-82.5 84t-119 32q-68 0 -118 -32t-83 -84t-49.5 -117.5t-16.5 -131.5zM473 357q0 -47 -8.5 -96t-28.5 -89t-53 -65t-82 -25q-47 0 -80 25
t-53.5 65t-30 89t-9.5 96t8.5 95.5t29 88t53.5 64.5t82 25t82.5 -25t53 -64.5t28 -88t8.5 -95.5z" />
    <glyph glyph-name="one" unicode="1" 
d="M458 82h-97v632h-197v-81h97v-551h-97v-82h294v82z" />
    <glyph glyph-name="two" unicode="2" 
d="M89 531h92l2 13q6 39 37.5 63.5t86.5 24.5q54 0 89.5 -32.5t35.5 -88.5q0 -37 -14.5 -63t-38.5 -46t-55.5 -37t-65.5 -36q-29 -17 -59.5 -37.5t-56.5 -50.5t-45 -73.5t-26 -104.5l-7 -63h455v202h-81v-120h-268l7 38q5 26 17.5 46.5t30.5 37t41.5 31t50.5 29.5
q34 19 70.5 40t66.5 49.5t49.5 66.5t19.5 91q0 45 -16.5 83t-45.5 65.5t-68.5 43t-85.5 15.5q-52 0 -91 -15.5t-66 -40.5t-41.5 -55t-17.5 -59z" />
    <glyph glyph-name="three" unicode="3" 
d="M523 536q0 40 -15.5 73.5t-43.5 57.5t-67 37t-85 13q-48 0 -88 -15.5t-69 -41t-45.5 -59.5t-17.5 -71h92q2 45 34.5 75.5t89.5 30.5q56 0 90 -28.5t34 -71.5q0 -59 -31 -86.5t-86 -27.5h-45v-81h45q24 0 48.5 -7.5t45 -24t33 -42t12.5 -61.5q0 -29 -11.5 -53.5t-31 -42.5
t-46 -28.5t-57.5 -10.5q-54 0 -92 29.5t-45 77.5h-91q4 -42 22.5 -77t49 -59.5t71 -38t88.5 -13.5q51 0 94 17t74 46t48.5 68.5t17.5 84.5q0 39 -11 69.5t-27.5 52.5t-37 35.5t-39.5 19.5q37 14 65 52.5t28 100.5z" />
    <glyph glyph-name="four" unicode="4" 
d="M466 714h-75l-356 -495v-53h337v-84h-61v-82h217v82h-62v84h92v82h-92v466zM372 248h-222l222 305v-305z" />
    <glyph glyph-name="five" unicode="5" 
d="M132 714l-47 -336l43 -26q28 27 58.5 39.5t75.5 12.5q42 0 76 -11.5t58 -32.5t37 -50.5t13 -64.5q0 -84 -50 -129t-129 -45q-34 0 -60 9.5t-45 24t-31.5 32.5t-18.5 35l-80 -37q10 -23 26.5 -48.5t44.5 -47t68 -35.5t96 -14q54 0 104 15.5t88.5 47.5t61 79.5t22.5 112.5
q0 57 -21 102t-57 76t-85 47t-104 16q-39 0 -59.5 -5t-30.5 -12l23 164h218v-76h81v157h-376z" />
    <glyph glyph-name="six" unicode="6" 
d="M305 76q-45 0 -77.5 18t-54.5 49t-33.5 72.5t-12.5 89.5q10 12 25.5 26t37 26t50.5 20.5t65 8.5q44 0 78 -12.5t57 -33.5t34.5 -49.5t11.5 -59.5q0 -30 -11 -58t-33.5 -49.5t-56.5 -34.5t-80 -13zM572 240q0 54 -20 97t-55.5 73t-84.5 46t-107 16q-36 0 -64 -6.5
t-49.5 -17t-37 -22.5t-27.5 -23q1 42 12.5 84t35 75t59 53.5t85.5 20.5q67 0 103 -26.5t53 -65.5l81 30q-11 24 -29 50.5t-46.5 48t-68 35.5t-93.5 14q-69 0 -122 -27t-89.5 -76t-55 -118t-18.5 -153q0 -75 16 -140.5t49 -114t84 -76t122 -27.5q59 0 108 17t84.5 49t55 78.5
t19.5 105.5z" />
    <glyph glyph-name="seven" unicode="7" 
d="M541 714h-485v-147h82v66h286q-91 -115 -146 -254t-60 -297h-61v-82h215v82h-63q3 76 19.5 150.5t46.5 144.5t71.5 134.5t94.5 121.5v81z" />
    <glyph glyph-name="eight" unicode="8" 
d="M517 538q0 39 -17.5 72.5t-47.5 58t-69.5 39t-83.5 14.5t-83.5 -14.5t-69.5 -39t-47.5 -58t-17.5 -72.5q0 -36 10.5 -62.5t26.5 -45.5t35.5 -31t38.5 -19q-24 -6 -48 -21t-43.5 -38.5t-32 -55t-12.5 -70.5t15.5 -76t45.5 -65.5t75.5 -46t105.5 -17.5t105.5 17.5t76.5 46
t46.5 65.5t15.5 76t-12.5 70.5t-32.5 55t-44 38.5t-48 21q18 7 37.5 18t36 29.5t27.5 45.5t11 65zM437 538q0 -20 -8.5 -39.5t-25.5 -34.5t-43 -24.5t-62 -9.5q-35 0 -60.5 9.5t-42.5 24.5t-25.5 34.5t-8.5 39.5t8.5 39t25.5 34t43 24t61 9t61 -9t43 -24t25.5 -34t8.5 -39z
M143 202q0 25 10 48.5t29.5 42t48.5 30t67 11.5t67 -11.5t49 -30t30.5 -42t10.5 -48.5q0 -24 -10 -48t-30 -42.5t-49.5 -30t-67.5 -11.5t-67 11.5t-48.5 30t-29.5 42.5t-10 48z" />
    <glyph glyph-name="nine" unicode="9" 
d="M295 636q43 0 75.5 -18t55 -49t35 -73.5t15.5 -90.5q-10 -12 -25.5 -25.5t-38 -25.5t-52 -20t-65.5 -8q-89 0 -134 41.5t-45 113.5q0 30 10.5 58t32.5 49.5t56 34.5t80 13zM28 472q0 -56 20 -99t55.5 -72.5t84.5 -45t107 -15.5q36 0 64 6.5t49.5 17t37 22.5t27.5 23
q-1 -42 -12.5 -84t-35 -75t-59.5 -53.5t-85 -20.5q-34 0 -59 7t-44 19.5t-31.5 29t-21.5 36.5l-81 -30q10 -24 28.5 -50.5t47 -48t68 -35.5t93.5 -14q69 0 122 27t89.5 76t55 118t18.5 153q0 75 -16 140.5t-49 114t-84.5 76t-121.5 27.5q-59 0 -108 -17t-84.5 -49t-55 -78.5
t-19.5 -105.5z" />
    <glyph glyph-name="colon" unicode=":" horiz-adv-x="235" 
d="M179 50q0 25 -17.5 42.5t-42.5 17.5t-42.5 -17.5t-17.5 -42.5t17.5 -42.5t42.5 -17.5t42.5 17.5t17.5 42.5zM179 417q0 25 -17.5 42.5t-42.5 17.5t-42.5 -17.5t-17.5 -42.5t17.5 -42.5t42.5 -17.5t42.5 17.5t17.5 42.5z" />
    <glyph glyph-name="semicolon" unicode=";" horiz-adv-x="230" 
d="M196 69h-86l-69 -187h49zM191 417q0 25 -17.5 42.5t-42.5 17.5t-42.5 -17.5t-17.5 -42.5t17.5 -42.5t42.5 -17.5t42.5 17.5t17.5 42.5z" />
    <glyph glyph-name="less" unicode="&#x3c;" horiz-adv-x="352" 
d="M315 490l-269 -194l262 -194v77l-155 117l162 117v77z" />
    <glyph glyph-name="equal" unicode="=" horiz-adv-x="393" 
d="M327 223h-258v-71h258v71zM327 377h-258v-72h258v72z" />
    <glyph glyph-name="greater" unicode="&#x3e;" horiz-adv-x="352" 
d="M61 102l262 194l-269 194v-77l162 -117l-155 -117v-77z" />
    <glyph glyph-name="question" unicode="?" horiz-adv-x="473" 
d="M283 211v121q31 4 60.5 18.5t52.5 38.5t37 56.5t14 71.5q0 36 -11 73t-35.5 66.5t-63.5 48.5t-96 19q-53 0 -90.5 -18.5t-62 -46.5t-37 -60t-15.5 -60h107q1 16 8 32t19 29t30 20.5t41 7.5q55 0 82 -32.5t27 -77.5q0 -57 -42.5 -92.5t-121.5 -35.5v-179h97zM295 51
q0 25 -17.5 42.5t-42.5 17.5t-42.5 -17.5t-17.5 -42.5t17.5 -42.5t42.5 -17.5t42.5 17.5t17.5 42.5z" />
    <glyph glyph-name="at" unicode="@" horiz-adv-x="617" 
d="M204 380q0 19 6.5 38t19.5 34t32 24.5t45 9.5q42 0 63 -28.5t21 -64.5q0 -19 -6 -37.5t-19 -33t-32 -23.5t-44 -9q-22 0 -38 7.5t-26.5 20t-16 29t-5.5 33.5zM84 399q0 47 17 87.5t47.5 70.5t73 47.5t93.5 17.5t93.5 -16t73 -45.5t47.5 -70.5t17 -91q0 -19 -3.5 -38.5
t-12.5 -35.5t-23.5 -26t-35.5 -10q-17 0 -25.5 5.5t-12.5 14.5t-5.5 20.5t-3.5 22.5l17 159h-29l-7 -48q-10 18 -32.5 36t-64.5 18q-34 0 -60 -12t-43.5 -32t-26.5 -45t-9 -50q0 -23 8 -45t23.5 -38.5t37.5 -26.5t51 -10q24 0 41.5 5t30 13.5t21.5 18.5t16 20q4 -21 19 -39
t50 -18q28 0 48.5 12.5t34 33t20.5 45.5t7 50q0 55 -20 101.5t-55 80.5t-83 53t-104 19t-104 -19.5t-83.5 -54t-55.5 -80.5t-20 -100t18.5 -100.5t52.5 -81t82.5 -54.5t107.5 -20q60 0 96 12.5t65 32.5l-20 24q-23 -14 -55.5 -26.5t-83.5 -12.5q-53 0 -95.5 17.5t-72.5 48
t-46.5 72t-16.5 88.5z" />
    <glyph glyph-name="A" unicode="A" horiz-adv-x="680" 
d="M338 598l99 -312h-198zM648 82h-53l-175 551h66v81h-296v-81h66l-175 -551h-53v-82h210v82h-63l35 111h256l35 -111h-63v-82h210v82z" />
    <glyph glyph-name="B" unicode="B" horiz-adv-x="591" 
d="M537 533q0 38 -14 71t-41 57.5t-65.5 38.5t-87.5 14h-289v-81h67v-551h-67v-82h295q51 0 91.5 15.5t69.5 43t44.5 65.5t15.5 83q0 40 -10 70t-25 51.5t-32.5 35.5t-33.5 23q30 14 56 49t26 97zM209 423v210h111q29 0 50.5 -8.5t36 -23t21.5 -33.5t7 -39q0 -46 -28 -76
t-86 -30h-112zM209 82v259h114q31 0 55 -10t41 -27.5t26 -41t9 -50.5t-9.5 -50.5t-27 -41.5t-41.5 -28t-53 -10h-114z" />
    <glyph glyph-name="C" unicode="C" horiz-adv-x="696" 
d="M563 570v-54h92v196h-92v-36q-26 19 -67.5 32.5t-111.5 13.5q-71 0 -134.5 -25.5t-111 -73t-75.5 -115.5t-28 -153q0 -79 28 -145.5t75.5 -115t111 -75.5t134.5 -27q58 0 99.5 9t73 22.5t55 30.5t44.5 34l-54 81q-18 -15 -37 -29t-43.5 -25t-56.5 -18t-77 -7
q-51 0 -97 19t-80 53.5t-54 83.5t-20 109q0 62 19 112t53 85t81 53.5t102 18.5q69 0 110 -17.5t61 -36.5z" />
    <glyph glyph-name="D" unicode="D" horiz-adv-x="711" 
d="M214 84v546h120q63 0 108.5 -21t75.5 -57t44 -84.5t14 -103.5q0 -57 -14 -108t-43 -89.5t-73.5 -60.5t-105.5 -22h-126zM44 84v-84h307q82 0 143.5 29.5t102 79.5t61 116t20.5 139q0 71 -20.5 134.5t-61.5 111.5t-102 76t-143 28h-307v-84h68v-546h-68z" />
    <glyph glyph-name="E" unicode="E" horiz-adv-x="602" 
d="M51 82v-82h507v163h-81v-81h-257v252h166v82h-166v216h257v-71h81v153h-507v-82h67v-550h-67z" />
    <glyph glyph-name="F" unicode="F" horiz-adv-x="582" 
d="M46 82v-82h238v82h-69v252h186v82h-186v216h246v-71h82v153h-497v-82h67v-550h-67z" />
    <glyph glyph-name="G" unicode="G" horiz-adv-x="752" 
d="M623 294q-2 -39 -16 -76.5t-41.5 -67.5t-70 -48t-101.5 -18q-64 0 -112 22.5t-80.5 60t-48.5 86t-16 101.5q0 59 17 109t49.5 86.5t79 57t106.5 20.5q75 0 125 -22.5t76 -58.5v-46h92v219h-92v-57q-27 23 -78 41.5t-129 18.5q-83 0 -147.5 -30.5t-108.5 -81.5
t-67.5 -118.5t-23.5 -141.5q0 -68 22.5 -132t66.5 -114.5t109 -81t149 -30.5q58 0 100 10.5t71 25.5t47 31.5t29 28.5v-88h91v386h-330v-92h232z" />
    <glyph glyph-name="H" unicode="H" horiz-adv-x="730" 
d="M691 82h-67v550h67v82h-236v-82h67v-214h-317v214h67v82h-236v-82h67v-550h-67v-82h236v82h-67v246h317v-246h-67v-82h236v82z" />
    <glyph glyph-name="I" unicode="I" horiz-adv-x="349" 
d="M300 82h-70v550h70v82h-240v-82h68v-550h-68v-82h240v82z" />
    <glyph glyph-name="J" unicode="J" horiz-adv-x="444" 
d="M183 -64q87 0 131.5 53.5t44.5 142.5v500h70v82h-250v-82h78v-489q0 -55 -16.5 -85t-59.5 -30q-35 0 -54.5 13t-33.5 30l-40 -73q20 -23 51.5 -42.5t78.5 -19.5z" />
    <glyph glyph-name="K" unicode="K" horiz-adv-x="664" 
d="M641 82h-68l-270 299l250 251h55v82h-235v-82h54l-221 -222v222h67v82h-236v-82h67v-550h-67v-82h236v82h-67v255l231 -255h-68v-82h272v82z" />
    <glyph glyph-name="L" unicode="L" horiz-adv-x="537" 
d="M420 143v-61h-215v550h67v82h-236v-82h67v-550h-67v-82h466v143h-82z" />
    <glyph glyph-name="M" unicode="M" horiz-adv-x="898" 
d="M865 82h-68v550h68v82h-201l-214 -540l-214 540h-198v-82h65v-550h-65v-82h235v82h-68v465l214 -547h62l214 547v-465h-65v-82h235v82z" />
    <glyph glyph-name="N" unicode="N" horiz-adv-x="781" 
d="M273 0v82h-67v452l373 -534h99v632h65v82h-234v-82h67v-444l-375 526h-162v-82h65v-550h-65v-82h234z" />
    <glyph glyph-name="O" unicode="O" horiz-adv-x="804" 
d="M40 356q0 -69 23 -134.5t68.5 -117t113.5 -83t159 -31.5t159 31.5t113.5 83t68.5 117t23 134.5t-23 134.5t-68.5 117t-113.5 83t-159 31.5t-159 -31.5t-113.5 -83t-68.5 -117t-23 -134.5zM666 356q0 -53 -17 -101t-50 -85.5t-82 -59.5t-113 -22t-113 22t-82 59.5
t-50 85.5t-17 101q0 52 17 100.5t50 86t82 59.5t113 22t113 -22t82 -59.5t50 -86t17 -100.5z" />
    <glyph glyph-name="P" unicode="P" horiz-adv-x="520" 
d="M396 518q0 -21 -6.5 -41.5t-18.5 -36t-30 -25t-42 -9.5h-97v224h97q24 0 42 -10t30 -26t18.5 -36t6.5 -40zM493 518q0 37 -12.5 72.5t-36.5 63t-60.5 44t-84.5 16.5h-265v-82h66v-550h-66v-82h237v82h-69v242h97q43 0 79 14t61.5 39.5t39.5 61t14 79.5z" />
    <glyph glyph-name="Q" unicode="Q" horiz-adv-x="804" 
d="M40 356q0 -63 19 -123.5t56.5 -110t94 -83.5t131.5 -44q-13 -1 -29.5 -3.5t-34.5 -7t-36 -11t-33 -16.5v-91q43 19 76 26.5t59 7.5q33 0 57.5 -9t45.5 -21q28 -15 54.5 -26t66.5 -11q59 0 110 18v107q-13 -5 -24 -9t-23 -6.5t-26.5 -4t-34.5 -1.5q-35 0 -55 8t-38 19
q-13 8 -25.5 14.5t-29.5 11.5q87 3 152 36t108.5 84t65 115t21.5 131q0 69 -23 134.5t-68.5 117t-113.5 83t-159 31.5t-159 -31.5t-113.5 -83t-68.5 -117t-23 -134.5zM666 356q0 -53 -17 -101t-50 -85.5t-82 -59.5t-113 -22t-113 22t-82 59.5t-50 85.5t-17 101
q0 52 17 100.5t50 86t82 59.5t113 22t113 -22t82 -59.5t50 -86t17 -100.5z" />
    <glyph glyph-name="R" unicode="R" horiz-adv-x="633" 
d="M433 516q0 -46 -23.5 -78t-80.5 -32h-122v224h122q29 0 49 -10t32 -26.5t17.5 -36.5t5.5 -41zM207 82v242h54l212 -324h129v82h-67l-165 242q19 1 47 10.5t54 31t44.5 58t18.5 92.5q0 40 -13.5 76t-38.5 63t-61 43t-81 16h-301v-82h66v-550h-66v-82h238v82h-70z" />
    <glyph glyph-name="S" unicode="S" horiz-adv-x="539" 
d="M420 199q0 -22 -9 -44t-28 -39.5t-48.5 -28.5t-69.5 -11q-30 0 -55 8t-43.5 19t-31 22t-17.5 17v60h-80v-202h81v45q7 -7 20.5 -15.5t32 -16.5t43 -13.5t54.5 -5.5q55 0 99.5 14.5t76.5 41.5t49.5 66t17.5 87q0 88 -57 141.5t-169 85.5q-44 12 -73.5 23t-47 23.5
t-24.5 28t-7 37.5q0 19 9.5 37t27.5 31.5t43.5 22t57.5 8.5q27 0 48.5 -4.5t38.5 -11.5t29.5 -14t20.5 -13v-52h82v172h-82v-31q-21 14 -53 24.5t-84 10.5q-50 0 -92.5 -13t-73 -37t-47.5 -59t-17 -80q0 -44 15 -74.5t40.5 -52t60 -35.5t73.5 -23q53 -13 89 -28t58.5 -33
t32 -39.5t9.5 -48.5z" />
    <glyph glyph-name="T" unicode="T" horiz-adv-x="556" 
d="M403 0v82h-69v550h102v-96h81v178h-469v-178h82v96h102v-550h-67v-82h238z" />
    <glyph glyph-name="U" unicode="U" horiz-adv-x="655" 
d="M565 215v417h69v82h-238v-82h67v-423q0 -35 -10.5 -59.5t-29 -39.5t-43.5 -21.5t-54 -6.5q-27 0 -51.5 6.5t-44 21.5t-31 39.5t-11.5 59.5v423h69v82h-238v-82h67v-417q0 -56 18 -98t49.5 -70.5t75.5 -42.5t97 -14q52 0 96 14t75.5 42.5t49.5 70.5t18 98z" />
    <glyph glyph-name="V" unicode="V" horiz-adv-x="720" 
d="M474 632h50l-163 -516l-163 516h50v82h-211v-82h52l204 -632h136l204 632h52v82h-211v-82z" />
    <glyph glyph-name="W" unicode="W" horiz-adv-x="1114" 
d="M423 632h62l-143 -531l-143 531h45v82h-210v-82h59l179 -632h135l151 561l151 -561h135l177 631l59 1v82h-211v-82h50l-139 -531l-144 530h61v83h-274v-82z" />
    <glyph glyph-name="X" unicode="X" horiz-adv-x="622" 
d="M242 82h-56l125 205l132 -205h-66v-82h226v82h-50l-189 295l160 255h67v82h-214v-82h37l-103 -171l-103 171h46v82h-219v-82h63l158 -258l-180 -292h-62v-82h228v82z" />
    <glyph glyph-name="Y" unicode="Y" horiz-adv-x="643" 
d="M271 345v-263h-53v-82h211v82h-56v263l201 287h46v82h-221v-82h67l-144 -199l-140 199h64v82h-222v-82h46z" />
    <glyph glyph-name="Z" unicode="Z" horiz-adv-x="546" 
d="M427 92h-280l361 553v69h-458v-178h82v86h255l-363 -553v-69h484v178h-81v-86z" />
    <glyph glyph-name="bracketleft" unicode="[" horiz-adv-x="240" 
d="M198 749v35h-139v-850l142 -1v33l-70 1v782h67z" />
    <glyph glyph-name="backslash" unicode="\" horiz-adv-x="311" 
d="M309 -36l-214 786h-82l215 -786h81z" />
    <glyph glyph-name="bracketright" unicode="]" horiz-adv-x="240" 
d="M189 -66v851h-139v-35h67v-783l-70 -1v-33z" />
    <glyph glyph-name="asciicircum" unicode="^" horiz-adv-x="352" 
d="M163 673l-112 -255h31l97 169l97 -169h30l-112 255h-31z" />
    <glyph glyph-name="underscore" unicode="_" horiz-adv-x="357" 
d="M372 -25h-371v-40h371v40z" />
    <glyph glyph-name="grave" unicode="`" horiz-adv-x="291" 
d="M202 592l35 36l-134 133l-36 -37z" />
    <glyph glyph-name="a" unicode="a" horiz-adv-x="572" 
d="M243 451q27 0 53 -7t46.5 -21t32.5 -34.5t12 -48.5v-47q-8 9 -20 18.5t-29.5 18t-41.5 14t-55 5.5q-50 0 -89.5 -14.5t-66.5 -39.5t-41.5 -57.5t-14.5 -68.5t13.5 -68t40 -57t66 -39.5t92.5 -14.5q34 0 57.5 4.5t40 11.5t28 15.5t20.5 16.5v-38h171v61h-73v273
q0 51 -20 88t-52 61t-73.5 35.5t-84.5 11.5q-54 0 -104.5 -17t-82.5 -48l48 -61q23 23 57.5 35t69.5 12zM115 169q0 41 31 69.5t97 28.5q69 0 103.5 -29.5t34.5 -68.5t-34.5 -68t-103.5 -29q-66 0 -97 28t-31 69z" />
    <glyph glyph-name="b" unicode="b" horiz-adv-x="646" 
d="M365 525q-41 0 -70.5 -7t-51 -17.5t-35.5 -22.5t-23 -23v295h-158v-71h61v-608h-61v-71h158v56q9 -10 22 -21.5t33.5 -22t50.5 -17.5t74 -7q64 0 113.5 23t83.5 61t51.5 86.5t17.5 99.5q0 49 -18.5 96.5t-53 85.5t-83.5 61.5t-111 23.5zM181 257q0 37 14 69.5t38.5 56.5
t57 38t69.5 14t69.5 -14t57 -38t38.5 -56.5t14 -69.5t-14 -69.5t-38.5 -56.5t-57 -38t-69.5 -14t-69.5 14t-57 38t-38.5 56.5t-14 69.5z" />
    <glyph glyph-name="c" unicode="c" horiz-adv-x="521" 
d="M120 259q0 34 13 65.5t37.5 56.5t60 40t80.5 15q40 0 69 -14t42 -26v-30h72v156h-72v-24q-19 11 -46.5 19t-66.5 8q-68 0 -120 -23t-87 -61t-53 -86.5t-18 -98.5t17.5 -98.5t52.5 -86.5t87 -61t122 -23q35 0 63.5 7.5t52 19t41.5 26t33 28.5l-57 63q-18 -18 -52 -36.5
t-80 -18.5q-48 0 -84 15.5t-60 41t-35.5 58.5t-11.5 68z" />
    <glyph glyph-name="d" unicode="d" horiz-adv-x="656" 
d="M392 680h83v-219q-22 25 -66.5 44.5t-113.5 19.5q-57 0 -105 -23t-82.5 -61t-54 -86.5t-19.5 -98.5t18.5 -98.5t52 -86t82 -60.5t108.5 -23q73 0 115.5 18t64.5 42v-48h159v71h-62v679h-180v-70zM126 256q0 37 14 69.5t38.5 56.5t57 38t69.5 14t69.5 -14t57 -38
t38.5 -56.5t14 -69.5t-14 -69.5t-38.5 -56.5t-57 -38t-69.5 -14t-69.5 14t-57 38t-38.5 56.5t-14 69.5z" />
    <glyph glyph-name="e" unicode="e" horiz-adv-x="583" 
d="M128 222h435q1 7 1 13v15q0 45 -14 94t-45 89.5t-79.5 67t-117.5 26.5q-66 0 -117 -23t-85.5 -61t-52.5 -86.5t-18 -99.5t17.5 -99.5t52 -86.5t87 -61t122.5 -23q37 0 65 6t50.5 16.5t40.5 24.5t35 29l-60 60q-20 -17 -51 -33t-80 -16q-47 0 -81 15.5t-56.5 38t-34.5 48
t-14 46.5zM468 296h-339q1 21 12.5 46t33 46.5t53.5 35.5t76 14q42 0 71.5 -13.5t49 -34.5t30 -46t13.5 -48z" />
    <glyph glyph-name="f" unicode="f" horiz-adv-x="314" 
d="M26 61v-61h219v61h-61v388h98v66h-98v85q0 33 18 45t37 12q15 0 24 -1t16 -3v89q-12 2 -27.5 3t-35.5 1q-23 0 -46 -7.5t-41.5 -23.5t-30 -40.5t-11.5 -58.5v-101h-56v-66h56v-388h-61z" />
    <glyph glyph-name="g" unicode="g" horiz-adv-x="668" 
d="M484 454q-36 33 -82.5 52t-99.5 19t-101 -20.5t-84.5 -56.5t-58 -85.5t-21.5 -107.5t21 -107.5t57 -85.5t84.5 -56.5t102.5 -20.5t100.5 19t81.5 52v-30q0 -39 -13 -65.5t-36.5 -43.5t-54.5 -24.5t-67 -7.5q-45 0 -69 10t-39 21l-65 -64q26 -26 64 -41t107 -15
q134 0 202 67t68 187v393h61v71h-158v-60zM129 255q0 37 14 69.5t38.5 56.5t57 38t69.5 14t69.5 -14t57 -38t38.5 -56.5t14 -69.5t-14 -69.5t-38.5 -56.5t-57 -38t-69.5 -14t-69.5 14t-57 38t-38.5 56.5t-14 69.5z" />
    <glyph glyph-name="h" unicode="h" horiz-adv-x="616" 
d="M37 0h219v61h-61v294q6 13 17 29t27.5 29.5t38.5 22.5t51 9q54 0 82.5 -28.5t28.5 -74.5v-281h-61v-61h219v61h-61v286q0 40 -13.5 73.5t-39 58t-62 38t-82.5 13.5q-60 0 -94 -19.5t-51 -44.5v284h-158v-61h61v-628h-61v-61z" />
    <glyph glyph-name="i" unicode="i" horiz-adv-x="315" 
d="M51 454h61v-393h-61v-61h219v61h-61v454h-158v-61zM218 654q0 25 -17.5 42.5t-42.5 17.5t-42.5 -17.5t-17.5 -42.5t17.5 -42.5t42.5 -17.5t42.5 17.5t17.5 42.5z" />
    <glyph glyph-name="j" unicode="j" horiz-adv-x="315" 
d="M88 454h61v-488q0 -33 -18 -54t-68 -21v-80q43 0 77 7.5t57.5 26t36 49.5t12.5 78v543h-158v-61zM256 654q0 25 -17.5 42.5t-42.5 17.5t-42.5 -17.5t-17.5 -42.5t17.5 -42.5t42.5 -17.5t42.5 17.5t17.5 42.5z" />
    <glyph glyph-name="k" unicode="k" horiz-adv-x="553" 
d="M270 455h66l-165 -165v460h-153v-61h62v-628h-62v-61h220v61h-67v195l256 -256h103v61h-43l-221 221l173 173h62v61h-231v-61z" />
    <glyph glyph-name="l" unicode="l" horiz-adv-x="315" 
d="M51 689h61v-628h-61v-61h219v61h-61v689h-158v-61z" />
    <glyph glyph-name="m" unicode="m" horiz-adv-x="885" 
d="M855 61h-61v301q0 35 -10 66t-30.5 53.5t-51 35.5t-71.5 13q-38 0 -65 -5.5t-45.5 -14.5t-31.5 -20t-23 -21q-5 9 -15 20t-25.5 20t-38 15t-51.5 6q-33 0 -56.5 -6t-40.5 -15.5t-28 -20t-19 -19.5v46h-158v-61h61v-393h-61v-61h219v61h-61v292q0 13 10 29.5t27 31
t39 24.5t46 10q21 0 36.5 -7.5t25.5 -19.5t15 -26.5t5 -29.5v-304h-61v-61h219v61h-61v292q0 16 10 32.5t27.5 30.5t40 23t48.5 9q43 0 60.5 -26.5t17.5 -60.5v-300h-61v-61h219v61z" />
    <glyph glyph-name="n" unicode="n" horiz-adv-x="618" 
d="M34 0h219v61h-61v294q5 11 15.5 26.5t28 29.5t41 24t54.5 10q49 0 77.5 -28t28.5 -75v-281h-61v-61h219v61h-61v286q0 84 -51.5 133.5t-140.5 49.5q-33 0 -56.5 -5.5t-41 -14.5t-30 -20.5t-22.5 -23.5v49h-158v-61h61v-393h-61v-61z" />
    <glyph glyph-name="o" unicode="o" horiz-adv-x="604" 
d="M577 255q0 56 -21 105t-57.5 86t-85.5 58t-105 21t-105 -21t-85.5 -58t-57.5 -86t-21 -105t21 -105t57.5 -86t85.5 -58t105 -21t105 21t85.5 58t57.5 86t21 105zM129 256q0 37 14 69.5t38.5 56.5t57 38t69.5 14t69.5 -14t57 -38t38.5 -56.5t14 -69.5t-14 -69.5
t-38.5 -56.5t-57 -38t-69.5 -14t-69.5 14t-57 38t-38.5 56.5t-14 69.5z" />
    <glyph glyph-name="p" unicode="p" horiz-adv-x="666" 
d="M198 -122v176q36 -32 82 -50.5t98 -18.5q54 0 102 21t84 58t57.5 86t21.5 105t-21 105t-57 86t-84.5 58t-102.5 21q-52 0 -97.5 -17.5t-80.5 -49.5v57h-158v-71h59v-566h-61v-72h219v72h-61zM193 255q0 37 14 69.5t38.5 56.5t57 38t69.5 14t69.5 -14t57 -38t38.5 -56.5
t14 -69.5t-14 -69.5t-38.5 -56.5t-57 -38t-69.5 -14t-69.5 14t-57 38t-38.5 56.5t-14 69.5z" />
    <glyph glyph-name="q" unicode="q" horiz-adv-x="679" 
d="M482 515v-61q-36 33 -82.5 52t-99.5 19t-101 -21t-84.5 -58t-58 -86t-21.5 -105t21.5 -105t58 -86t84.5 -58t101 -21q54 0 101 19.5t83 53.5v-252h158v72h-61v566h59v71h-158zM127 255q0 37 14 69.5t38.5 56.5t57 38t69.5 14t69.5 -14t57 -38t38.5 -56.5t14 -69.5
t-14 -69.5t-38.5 -56.5t-57 -38t-69.5 -14t-69.5 14t-57 38t-38.5 56.5t-14 69.5z" />
    <glyph glyph-name="r" unicode="r" horiz-adv-x="427" 
d="M260 61h-61v260q0 27 15 48t41.5 36t63 23.5t80.5 9.5v93q-45 0 -78 -7t-56.5 -18t-39 -26t-26.5 -30v65h-158v-61h61v-393h-61v-61h219v61z" />
    <glyph glyph-name="s" unicode="s" horiz-adv-x="453" 
d="M351 515v-25q-17 14 -48 25.5t-82 11.5q-35 0 -67.5 -9.5t-57 -27.5t-39.5 -44.5t-15 -60.5q0 -37 15.5 -62t39.5 -42t53.5 -28t56.5 -18q37 -10 62 -19.5t39.5 -20t20.5 -23.5t6 -30q0 -26 -24 -45.5t-77 -19.5q-49 0 -77.5 13t-49.5 29v36h-71v-155h69v28q11 -8 23 -15
t27.5 -12.5t36 -8.5t47.5 -3q36 0 70 8t61 26t43.5 47t16.5 72q0 70 -51.5 111.5t-146.5 64.5q-57 14 -79 29.5t-22 37.5q0 60 88 60q42 0 77.5 -14.5t54.5 -34.5v-31h71v150h-71z" />
    <glyph glyph-name="t" unicode="t" horiz-adv-x="324" 
d="M243 68q-31 0 -45 19t-14 52v306h115v66h-115v181l-97 -49v-132h-56v-66h56v-306q0 -40 10.5 -69t28.5 -47.5t42 -27t51 -8.5q41 0 83 18v82q-17 -10 -29.5 -14.5t-29.5 -4.5z" />
    <glyph glyph-name="u" unicode="u" horiz-adv-x="637" 
d="M539 515h-158v-61h61v-288q0 -5 -8.5 -21t-26 -33t-43.5 -30t-61 -13q-49 0 -77.5 30.5t-28.5 87.5v328h-158v-61h61v-263q0 -105 49.5 -155t142.5 -50q34 0 58.5 6t42.5 15.5t29.5 20.5t19.5 20v-48h158v61h-61v454z" />
    <glyph glyph-name="v" unicode="v" horiz-adv-x="606" 
d="M269 0h70l213 454h43v61h-191v-61h51l-151 -330l-151 330h50v61h-191v-61h44z" />
    <glyph glyph-name="w" unicode="w" horiz-adv-x="932" 
d="M570 454v61h-204v-61h69l-133 -330l-133 330h50v61h-188v-61h43l192 -454h69l133 327l133 -327h69l192 454h44v61h-189v-61h50l-132 -330l-133 330h68z" />
    <glyph glyph-name="x" unicode="x" horiz-adv-x="540" 
d="M516 0v60h-55l-139 188l153 206h41v61h-188v-61h52l-106 -143l-106 143h53v61h-188v-61h41l148 -199l-145 -195h-44v-60h188v60h-49l97 132l98 -132h-39v-60h188z" />
    <glyph glyph-name="y" unicode="y" horiz-adv-x="633" 
d="M71 454l200 -428l-71 -154h-54v-61h199v61h-54l272 582h47v61h-189v-61h47l-150 -330l-152 330h50v61h-188v-61h43z" />
    <glyph glyph-name="z" unicode="z" horiz-adv-x="488" 
d="M389 70h-240l306 376v69h-406v-168h70v97h227l-304 -381v-63h417v178h-70v-108z" />
    <glyph glyph-name="braceleft" unicode="{" horiz-adv-x="270" 
d="M155 445v207q0 45 19.5 65t67.5 20v55q-42 0 -72 -10.5t-49 -29t-28 -44t-9 -56.5v-207q0 -37 -15.5 -57t-39.5 -33q23 -14 39 -34.5t16 -55.5v-211q0 -69 40 -102.5t118 -33.5v61q-39 0 -63 14.5t-24 60.5v211q0 21 -7 35t-18 24t-24 17l-26 14q13 5 26.5 11t24 15.5
t17.5 25t7 38.5z" />
    <glyph glyph-name="bar" unicode="|" horiz-adv-x="179" 
d="M126 -46v801h-72v-801h72z" />
    <glyph glyph-name="braceright" unicode="}" horiz-adv-x="270" 
d="M37 737q48 0 67.5 -20t19.5 -65v-207q0 -23 7 -38.5t17.5 -25t24 -15.5t26.5 -11l-26 -14t-24 -17t-18 -24t-7 -35v-211q0 -46 -24 -60.5t-63 -14.5v-61q78 0 118 33.5t40 102.5v211q0 35 16 55.5t39 34.5q-24 13 -39.5 33t-15.5 57v207q0 31 -9 56.5t-28 44t-49 29
t-72 10.5v-55z" />
    <glyph glyph-name="asciitilde" unicode="~" horiz-adv-x="488" 
d="M45 373l35 -43q16 14 33 25.5t44 11.5q26 0 42.5 -7t32.5 -16q20 -14 42 -21t53 -7q43 0 72 15.5t48 32.5l-35 45q-16 -14 -34.5 -24.5t-52.5 -10.5q-21 0 -38 8t-33 16q-18 10 -41 18.5t-51 8.5q-41 0 -69 -16t-48 -36z" />
    <glyph glyph-name="quotesinglbase" unicode="&#x201a;" horiz-adv-x="199" 
d="M62 202v-106h48q0 -36 -6.5 -63.5t-17.5 -50.5h34q9 18 17 47t8 69v104h-83z" />
    <glyph glyph-name="florin" unicode="&#x192;" horiz-adv-x="553" 
d="M519 480h-481v-481h481v481z" />
    <glyph glyph-name="quotedblbase" unicode="&#x201e;" horiz-adv-x="357" 
d="M214 202v-106h48q0 -36 -6.5 -63.5t-17.5 -50.5h34q9 18 17 47t8 69v104h-83zM62 202v-106h48q0 -36 -6.5 -63.5t-17.5 -50.5h34q9 18 17 47t8 69v104h-83z" />
    <glyph glyph-name="ellipsis" unicode="&#x2026;" horiz-adv-x="704" 
d="M185 50q0 25 -17.5 42.5t-42.5 17.5t-42.5 -17.5t-17.5 -42.5t17.5 -42.5t42.5 -17.5t42.5 17.5t17.5 42.5zM414 50q0 25 -17.5 42.5t-42.5 17.5t-42.5 -17.5t-17.5 -42.5t17.5 -42.5t42.5 -17.5t42.5 17.5t17.5 42.5zM643 50q0 25 -17.5 42.5t-42.5 17.5t-42.5 -17.5
t-17.5 -42.5t17.5 -42.5t42.5 -17.5t42.5 17.5t17.5 42.5z" />
    <glyph glyph-name="dagger" unicode="&#x2020;" horiz-adv-x="245" 
d="M116 119h36v449h67v36h-67v126h-36v-126h-67v-36h67v-449z" />
    <glyph glyph-name="daggerdbl" unicode="&#x2021;" horiz-adv-x="245" 
d="M116 106h36v273h67v35h-67v149h67v36h-67v131h-36v-131h-67v-36h67v-149h-67v-35h67v-273z" />
    <glyph glyph-name="circumflex" unicode="&#x2c6;" horiz-adv-x="357" 
d="M185 755l-122 -121l35 -35l87 87l85 -86l35 35z" />
    <glyph glyph-name="perthousand" unicode="&#x2030;" horiz-adv-x="1189" 
d="M137 0l617 714h-85l-617 -714h85zM387 546q0 37 -14 69t-38 56t-56 38t-69 14t-69 -14t-56 -38t-38 -56t-14 -69t14 -69t38 -56t56 -38t69 -14t69 14t56 38t38 56t14 69zM99 547q0 23 9 43t24 35t35 24t43 9t43 -9t35 -24t24 -35t9 -43t-9 -43t-24 -35t-35 -24t-43 -9
t-43 9t-35 24t-24 35t-9 43zM765 162q0 37 -14 69t-38 56t-56 38t-69 14t-69 -14t-56 -38t-38 -56t-14 -69t14 -69t38 -56t56 -38t69 -14t69 14t56 38t38 56t14 69zM477 163q0 23 9 43t24 35t35 24t43 9t43 -9t35 -24t24 -35t9 -43t-9 -43t-24 -35t-35 -24t-43 -9t-43 9
t-35 24t-24 35t-9 43zM1169 162q0 37 -14 69t-38 56t-56 38t-69 14t-69 -14t-56 -38t-38 -56t-14 -69t14 -69t38 -56t56 -38t69 -14t69 14t56 38t38 56t14 69zM881 163q0 23 9 43t24 35t35 24t43 9t43 -9t35 -24t24 -35t9 -43t-9 -43t-24 -35t-35 -24t-43 -9t-43 9t-35 24
t-24 35t-9 43z" />
    <glyph glyph-name="Scaron" unicode="&#x160;" horiz-adv-x="539" 
d="M420 199q0 -22 -9 -44t-28 -39.5t-48.5 -28.5t-69.5 -11q-30 0 -55 8t-43.5 19t-31 22t-17.5 17v60h-80v-202h81v45q7 -7 20.5 -15.5t32 -16.5t43 -13.5t54.5 -5.5q55 0 99.5 14.5t76.5 41.5t49.5 66t17.5 87q0 88 -57 141.5t-169 85.5q-44 12 -73.5 23t-47 23.5
t-24.5 28t-7 37.5q0 19 9.5 37t27.5 31.5t43.5 22t57.5 8.5q27 0 48.5 -4.5t38.5 -11.5t29.5 -14t20.5 -13v-52h82v172h-82v-31q-21 14 -53 24.5t-84 10.5q-50 0 -92.5 -13t-73 -37t-47.5 -59t-17 -80q0 -44 15 -74.5t40.5 -52t60 -35.5t73.5 -23q53 -13 89 -28t58.5 -33
t32 -39.5t9.5 -48.5zM267 741l96 96l-28 28l-69 -69l-69 69l-28 -28z" />
    <glyph glyph-name="guilsinglleft" unicode="&#x2039;" horiz-adv-x="276" 
d="M219 67l36 36l-153 152l152 152l-35 36l-188 -188z" />
    <glyph glyph-name="OE" unicode="&#x152;" horiz-adv-x="1185" 
d="M698 633v-67q-22 34 -52 62.5t-68 49.5t-84 32.5t-100 11.5q-91 0 -159 -31.5t-113.5 -83t-68.5 -117t-23 -134.5t23 -134.5t68.5 -117t113.5 -83t159 -31.5q109 0 184.5 43.5t119.5 112.5v-64h-33v-82h473v163h-81v-81h-257v253h166v81h-166v217h257v-72h81v153h-474
v-81h34zM656 356q0 -53 -16.5 -103t-49.5 -89.5t-82 -63.5t-114 -24t-114 24t-82 63.5t-49.5 89.5t-16.5 103q0 52 16.5 102.5t49.5 90t82 63.5t114 24t114 -24t82 -63.5t49.5 -90t16.5 -102.5z" />
    <glyph glyph-name="quoteleft" unicode="&#x2018;" horiz-adv-x="214" 
d="M148 512v106h-48q0 36 6.5 63.5t17.5 50.5h-34q-9 -18 -17 -47t-8 -69v-104h83z" />
    <glyph glyph-name="quoteright" unicode="&#x2019;" horiz-adv-x="209" 
d="M62 733v-106h48q0 -1 -0.5 -9.5t-2 -22t-2.5 -23.5q-5 -26 -11.5 -42t-6.5 -17h34q10 17 17 49t7 67v104h-83z" />
    <glyph glyph-name="quotedblleft" unicode="&#x201c;" horiz-adv-x="357" 
d="M148 512v106h-48q0 36 6.5 63.5t17.5 50.5h-34q-9 -18 -17 -47t-8 -69v-104h83zM300 512v106h-48q0 36 6.5 63.5t17.5 50.5h-34q-9 -18 -17 -47t-8 -69v-104h83z" />
    <glyph glyph-name="quotedblright" unicode="&#x201d;" horiz-adv-x="357" 
d="M214 732v-106h48q0 -36 -6.5 -63.5t-17.5 -50.5h34q9 18 17 47t8 69v104h-83zM62 732v-106h48q0 -36 -6.5 -63.5t-17.5 -50.5h34q9 18 17 47t8 69v104h-83z" />
    <glyph glyph-name="bullet" unicode="&#x2022;" horiz-adv-x="439" 
d="M371 243q0 31 -12 59t-32.5 48.5t-48.5 32.5t-59 12q-32 0 -59.5 -12t-48 -32.5t-32.5 -48.5t-12 -59q0 -32 12 -59.5t32.5 -48t48 -32.5t59.5 -12q31 0 59 12t48.5 32.5t32.5 48t12 59.5z" />
    <glyph glyph-name="endash" unicode="&#x2013;" horiz-adv-x="629" 
d="M572 315h-520v-71h520v71z" />
    <glyph glyph-name="emdash" unicode="&#x2014;" horiz-adv-x="857" 
d="M807 315h-755v-71h755v71z" />
    <glyph glyph-name="tilde" unicode="&#x2dc;" horiz-adv-x="403" 
d="M40 662l32 -40q15 15 29 23t41 8q17 0 30.5 -8.5t27.5 -16.5q13 -8 28 -14.5t36 -6.5q34 0 58.5 14.5t42.5 30.5l-30 41q-15 -12 -31 -21t-40 -9q-17 0 -30.5 8.5t-26.5 16.5q-14 9 -29.5 15t-35.5 6q-38 0 -61.5 -14.5t-40.5 -32.5z" />
    <glyph glyph-name="trademark" unicode="&#x2122;" horiz-adv-x="367" 
d="M156 721h-137v-14h62v-177h14v177h61v14zM193 724l-43 -193h15l31 144l58 -155l59 155l30 -144h14l-41 193l-62 -163z" />
    <glyph glyph-name="scaron" unicode="&#x161;" horiz-adv-x="453" 
d="M351 515v-25q-17 14 -48 25.5t-82 11.5q-35 0 -67.5 -9.5t-57 -27.5t-39.5 -44.5t-15 -60.5q0 -37 15.5 -62t39.5 -42t53.5 -28t56.5 -18q37 -10 62 -19.5t39.5 -20t20.5 -23.5t6 -30q0 -26 -24 -45.5t-77 -19.5q-49 0 -77.5 13t-49.5 29v36h-71v-155h69v28q11 -8 23 -15
t27.5 -12.5t36 -8.5t47.5 -3q36 0 70 8t61 26t43.5 47t16.5 72q0 70 -51.5 111.5t-146.5 64.5q-57 14 -79 29.5t-22 37.5q0 60 88 60q42 0 77.5 -14.5t54.5 -34.5v-31h71v150h-71zM223 595l120 121l-35 35l-86 -87l-86 86l-35 -35z" />
    <glyph glyph-name="guilsinglright" unicode="&#x203a;" horiz-adv-x="296" 
d="M44 407l152 -152l-153 -152l36 -36l188 188l-188 188z" />
    <glyph glyph-name="oe" unicode="&#x153;" horiz-adv-x="1051" 
d="M765 527q-85 0 -143 -34.5t-90 -88.5q-37 55 -95.5 88t-128.5 33q-56 0 -105 -21t-85.5 -58t-57.5 -86t-21 -105t21 -105t57.5 -86t85.5 -58t105 -21q72 0 131 33.5t94 89.5q34 -53 92.5 -87t145.5 -34q37 0 65 6t50.5 16.5t40.5 24.5t35 29l-60 60q-20 -17 -51 -34
t-80 -17q-50 0 -84.5 15.5t-57 38.5t-33.5 49t-13 47h437q1 7 1 13v15q0 45 -14 94t-45 89.5t-79.5 67t-117.5 26.5zM121 255q0 39 14.5 72.5t40 59t59.5 40t73 14.5t73 -14.5t59.5 -40t40 -59t14.5 -72.5t-14.5 -72.5t-40 -59t-59.5 -40t-73 -14.5t-73 14.5t-59.5 40
t-40 59t-14.5 72.5zM929 296h-343q1 21 12.5 47.5t33 49t53.5 38t76 15.5q45 0 76.5 -15t51.5 -37.5t29 -48.5t11 -49z" />
    <glyph glyph-name="Ydieresis" unicode="&#x178;" horiz-adv-x="643" 
d="M300 794q0 20 -13 33t-33 13q-19 0 -32.5 -13t-13.5 -33t13.5 -33t32.5 -13q20 0 33 13t13 33zM433 794q0 20 -13.5 33t-32.5 13q-20 0 -33 -13t-13 -33t13 -33t33 -13q19 0 32.5 13t13.5 33zM271 345v-263h-53v-82h211v82h-56v263l201 287h46v82h-221v-82h67l-144 -199
l-140 199h64v82h-222v-82h46z" />
    <glyph glyph-name="exclamdown" unicode="&#xa1;" horiz-adv-x="235" 
d="M70 -112h97v535h-97v-535zM59 552q0 -25 17.5 -42.5t42.5 -17.5t42.5 17.5t17.5 42.5t-17.5 42.5t-42.5 17.5t-42.5 -17.5t-17.5 -42.5z" />
    <glyph glyph-name="cent" unicode="&#xa2;" horiz-adv-x="454" 
d="M394 505q-19 11 -42.5 21t-58.5 14v57h-56v-58q-45 -2 -79 -19.5t-56.5 -45.5t-34 -63t-11.5 -72q0 -36 11.5 -71t34 -63t56.5 -46t79 -21v-61h56v61q29 0 56.5 11t44.5 21v83q-9 -8 -20 -16.5t-25.5 -15.5t-34 -11t-46.5 -4q-32 0 -56.5 11.5t-41 30t-24.5 42t-8 48.5
q0 24 8 47.5t24.5 42t41 30t56.5 11.5q25 0 43 -3t32.5 -8.5t26.5 -13.5t24 -18v79z" />
    <glyph glyph-name="sterling" unicode="&#xa3;" horiz-adv-x="520" 
d="M188 557q0 12 5.5 24.5t16.5 23t28 17.5t41 7q22 0 43 -6.5t37.5 -17t28 -25t15.5 -30.5l85 32q-20 63 -75.5 100t-136.5 37q-42 0 -76 -12.5t-58.5 -34.5t-38 -52.5t-13.5 -66.5q0 -30 11.5 -55t27.5 -48q15 -23 29.5 -46t20.5 -53h-105v-51h109q0 -54 -13.5 -95
t-45.5 -73q-23 -7 -46.5 -18.5t-37.5 -29.5l30 -85q15 11 27 18.5t24.5 12.5t27 7.5t33.5 2.5q24 0 41 -8t37 -18q17 -8 37.5 -14t51.5 -6q26 0 48.5 6t40.5 14.5t30.5 18t20.5 17.5l-32 77q-16 -17 -45.5 -28t-52.5 -11q-22 0 -39.5 7t-31.5 15q-13 8 -25 14.5t-26 8.5
q25 33 33 72.5t8 94.5h112v51h-114q-6 32 -20 58t-30 50q-14 22 -26 44t-12 54z" />
    <glyph glyph-name="currency" unicode="&#xa4;" horiz-adv-x="554" 
d="M338 598v-83h-154v76q0 38 20.5 59t55.5 21q41 0 59.5 -21.5t18.5 -51.5zM496 61h-61v393h98v61h-98v108q0 32 12.5 49.5t42.5 17.5q16 0 24 -2t15 -4v59q-11 2 -27 4t-36 2q-22 0 -38 -5.5t-27 -13t-18.5 -16t-11.5 -15.5q-13 15 -39.5 30.5t-78.5 15.5q-33 0 -63 -9.5
t-53 -29t-36.5 -50t-13.5 -72.5v-69h-56v-61h56v-393h-61v-61h219v61h-61v393h154v-393h-61v-61h219v61z" />
    <glyph glyph-name="yen" unicode="&#xa5;" horiz-adv-x="640" 
d="M70 633v1l203 -293h-104v-56h102v-41h-102v-56h102v-106h-53v-82h211v82h-57v106h102v56h-102v41h102v56h-104l204 292h46v81h-221v-81h68l-145 -215l-140 215h64v81h-222v-81h46z" />
    <glyph glyph-name="brokenbar" unicode="&#xa6;" horiz-adv-x="179" 
d="M126 464v291h-72v-291h72zM126 0v291h-72v-291h72z" />
    <glyph glyph-name="section" unicode="&#xa7;" horiz-adv-x="383" 
d="M337 100q0 27 -8 49t-20 38.5t-25 27t-22 15.5q29 14 50.5 41t21.5 78q0 60 -40 105.5t-107 61.5q-28 7 -49.5 26.5t-21.5 48.5q0 25 16.5 44.5t48.5 19.5q35 0 53 -15t32 -41l55 41q-9 16 -20.5 32.5t-28 30t-39 21.5t-52.5 8q-35 0 -61.5 -11.5t-44 -30.5t-26.5 -44
t-9 -51q0 -24 7 -42.5t19 -33t27 -25t31 -17.5q-34 -15 -59 -45t-25 -86q0 -32 11 -56.5t29.5 -43t43.5 -31.5t53 -22q35 -11 59 -36t24 -54q0 -35 -20 -51.5t-56 -16.5q-35 0 -60.5 17t-33.5 48l-64 -33q15 -45 54.5 -77t100.5 -32q34 0 62.5 10t49.5 28t32.5 44.5
t11.5 59.5zM106 350q0 13 4.5 26.5t13.5 25t23 19t34 7.5q43 0 64.5 -23.5t21.5 -58.5q0 -33 -21 -53.5t-59 -20.5q-12 0 -26 5t-26.5 15t-20.5 24.5t-8 33.5z" />
    <glyph glyph-name="dieresis" unicode="&#xa8;" horiz-adv-x="337" 
d="M149 654q0 23 -15.5 38.5t-38.5 15.5t-38.5 -15.5t-15.5 -38.5t15.5 -38.5t38.5 -15.5t38.5 15.5t15.5 38.5zM298 654q0 23 -15.5 38.5t-38.5 15.5t-38.5 -15.5t-15.5 -38.5t15.5 -38.5t38.5 -15.5t38.5 15.5t15.5 38.5z" />
    <glyph glyph-name="copyright" unicode="&#xa9;" horiz-adv-x="588" 
d="M565 389q0 54 -20.5 102t-56.5 84t-84 56.5t-102 20.5t-102 -20.5t-84 -56.5t-56.5 -84t-20.5 -102t20.5 -102t56.5 -84t84 -56.5t102 -20.5t102 20.5t84 56.5t56.5 84t20.5 102zM60 390q0 50 19 94.5t52 77.5t77.5 52t94.5 19t94.5 -19t77.5 -52t52 -77.5t19 -94.5
t-19 -94.5t-52 -77.5t-77.5 -52t-94.5 -19t-94.5 19t-77.5 52t-52 77.5t-19 94.5zM192 394q0 19 7 37t20.5 32t34.5 22.5t48 8.5q32 0 55.5 -11t39.5 -23v24q-15 10 -37 20t-58 10q-33 0 -57 -10.5t-40.5 -27t-24.5 -38.5t-8 -44q0 -23 8 -44.5t24.5 -38.5t41 -27.5
t56.5 -10.5q38 0 60.5 12t34.5 23v24q-17 -17 -38.5 -28t-56.5 -11q-27 0 -48 8.5t-34.5 23t-20.5 32.5t-7 37z" />
    <glyph glyph-name="ordfeminine" unicode="&#xaa;" horiz-adv-x="439" 
d="M408 307h-356v-40h356v40zM207 628q16 0 31.5 -4t27.5 -12.5t19 -21t7 -28.5v-27q-9 10 -29 21.5t-57 11.5q-30 0 -53.5 -8.5t-39.5 -23.5t-24.5 -34.5t-8.5 -40.5q0 -42 32 -74t94 -32q40 0 57.5 9.5t28.5 19.5v-23h101v36h-43v162q0 30 -11.5 52t-31 36.5t-44 21
t-49.5 6.5q-32 0 -61.5 -10t-49.5 -28l29 -37q14 14 34 21t41 7zM127 461q0 23 20 42t60 19q41 0 61 -19t20 -42t-20 -42.5t-61 -19.5q-40 0 -60 19.5t-20 42.5z" />
    <glyph glyph-name="guillemotleft" unicode="&#xab;" horiz-adv-x="459" 
d="M214 67l36 36l-153 152l152 152l-35 36l-188 -188zM388 67l34 36l-152 152l152 152l-34 36l-189 -188z" />
    <glyph glyph-name="logicalnot" unicode="&#xac;" horiz-adv-x="310" 
d="M267 388h-218v-31h218v31zM225 458h-44v285h-88v-37h44v-248h-44v-37h132v37zM254 237q0 17 -8 32t-21.5 26t-31 17.5t-37.5 6.5t-38 -6.5t-31.5 -17.5t-21 -26t-7.5 -33q0 -32 16 -47t33 -22q-9 -3 -19 -10t-19 -18t-15 -26t-6 -34q0 -16 6 -32t19.5 -28.5t33.5 -20
t49 -7.5q51 0 80 27t29 61q0 21 -6.5 36.5t-15.5 26t-20 16.5t-20 9q8 3 17 8t16.5 13t12.5 20t5 29zM218 236q0 -18 -15.5 -33t-47.5 -15t-47 15t-15 33t15.5 33.5t47.5 15.5q31 0 46.5 -15.5t15.5 -33.5zM84 87q0 22 18 40.5t53 18.5t53 -20t18 -43q0 -21 -17 -38.5
t-53 -17.5t-54 18.5t-18 41.5z" />
    <glyph glyph-name="registered" unicode="&#xae;" horiz-adv-x="418" 
d="M276 615q0 21 -14 35t-37 14h-70v-182h14v84h31l58 -84h18l-59 84h8q23 0 37 12t14 37zM262 615q0 -35 -36 -35h-57v70h57q18 0 27 -10.5t9 -24.5zM368 569q0 33 -12.5 61.5t-34 50t-50 34t-61.5 12.5t-61.5 -12.5t-50 -34t-34 -50t-12.5 -61.5t12.5 -61.5t34 -50t50 -34
t61.5 -12.5t61.5 12.5t50 34t34 50t12.5 61.5zM67 569q0 30 11 56t30.5 45.5t45.5 30.5t56 11t56 -11t45.5 -30.5t30.5 -45.5t11 -56t-11 -56t-30.5 -45.5t-45.5 -30.5t-56 -11t-56 11t-45.5 30.5t-30.5 45.5t-11 56z" />
    <glyph glyph-name="macron" unicode="&#xaf;" horiz-adv-x="449" 
d="M403 703h-356v-40h356v40z" />
    <glyph glyph-name="degree" unicode="&#xb0;" horiz-adv-x="235" 
d="M207 607q0 18 -7 33.5t-18.5 27t-27 18.5t-33.5 7t-33.5 -7t-27 -18.5t-18.5 -27t-7 -33.5t7 -33.5t18.5 -27t27 -18.5t33.5 -7t33.5 7t27 18.5t18.5 27t7 33.5zM68 607q0 22 15.5 37.5t37.5 15.5t37.5 -15.5t15.5 -37.5t-15.5 -37.5t-37.5 -15.5t-37.5 15.5t-15.5 37.5z
" />
    <glyph glyph-name="plusminus" unicode="&#xb1;" horiz-adv-x="393" 
d="M354 223h-303v-71h303v71zM166 465h-127v-71h127v-128h72v128h127v71h-127v128h-72v-128z" />
    <glyph glyph-name="twosuperior" unicode="&#xb2;" horiz-adv-x="310" 
d="M68 661h42l1 6q2 18 16 30t39 12t41 -15.5t16 -41.5q0 -17 -6.5 -28.5t-17.5 -20.5t-25 -16.5t-30 -15.5q-13 -8 -26.5 -17t-25.5 -22.5t-20.5 -33t-11.5 -47.5l-3 -29h205v91h-37v-54h-120l3 17q5 24 21.5 38.5t41.5 28.5q15 9 31.5 18t30 21t22 29t8.5 41
q0 41 -27.5 67.5t-69.5 26.5q-23 0 -41 -7t-30 -18.5t-18.5 -25t-7.5 -26.5z" />
    <glyph glyph-name="threesuperior" unicode="&#xb3;" horiz-adv-x="310" 
d="M257 665q0 37 -26.5 59.5t-68.5 22.5q-44 0 -70.5 -25.5t-28.5 -58.5h41q2 20 16 33.5t40 13.5q25 0 40.5 -12.5t15.5 -32.5q0 -26 -14 -38.5t-39 -12.5h-20v-36h20q22 0 42 -14.5t20 -46.5q0 -26 -18.5 -43.5t-46.5 -17.5q-24 0 -41 13t-20 35h-41q4 -38 32 -61t72 -23
q46 0 75.5 28t29.5 69q0 35 -17 54t-37 25q18 7 31 24t13 45z" />
    <glyph glyph-name="acute" unicode="&#xb4;" horiz-adv-x="276" 
d="M237 724l-36 37l-134 -133l35 -36z" />
    <glyph glyph-name="mu" unicode="&#xb5;" horiz-adv-x="605" 
d="M268 673q41 0 63 -22t22 -56v-80h-169v80q0 32 22 55t62 23zM508 72q-26 0 -42 19t-16 52v311h104v61h-104v91q0 28 -12 54t-35 45.5t-57 31.5t-79 12q-41 0 -74.5 -12t-57 -32t-36 -46.5t-12.5 -55.5v-88h-56v-61h56v-393h-61v-61h219v61h-61v393h169v-309
q0 -41 10.5 -70t28.5 -47.5t42 -27.5t51 -9q41 0 82 18v82q-32 -19 -59 -19z" />
    <glyph glyph-name="paragraph" unicode="&#xb6;" horiz-adv-x="622" 
d="M412 -51v765h-169q-40 0 -75.5 -12t-61.5 -34.5t-41.5 -56t-15.5 -76.5q0 -42 16 -75t43 -56t62 -35t73 -12h67v-408h102zM575 -51v765h-102v-765h102z" />
    <glyph glyph-name="periodcentered" unicode="&#xb7;" horiz-adv-x="311" 
d="M219 382q0 25 -17.5 42.5t-42.5 17.5t-42.5 -17.5t-17.5 -42.5t17.5 -42.5t42.5 -17.5t42.5 17.5t17.5 42.5z" />
    <glyph glyph-name="periodcentered" unicode="&#x2219;" horiz-adv-x="311" 
d="M219 382q0 25 -17.5 42.5t-42.5 17.5t-42.5 -17.5t-17.5 -42.5t17.5 -42.5t42.5 -17.5t42.5 17.5t17.5 42.5z" />
    <glyph glyph-name="cedilla" unicode="&#xb8;" horiz-adv-x="245" 
d="M149 -37l11 37h-51l-13 -44q14 -4 26.5 -14t12.5 -25t-9.5 -22.5t-23.5 -7.5q-15 0 -28.5 8.5t-21.5 19.5v-48q9 -11 26.5 -20.5t40.5 -9.5q18 0 31 6t21 16t12 21.5t4 23.5q0 21 -12 37t-26 22z" />
    <glyph glyph-name="onesuperior" unicode="&#xb9;" horiz-adv-x="310" 
d="M223 458h-44v285h-88v-37h44v-248h-44v-37h132v37z" />
    <glyph glyph-name="ordmasculine" unicode="&#xba;" horiz-adv-x="439" 
d="M400 308h-356v-40h356v40zM381 520q0 33 -12.5 62.5t-34.5 51.5t-51 35t-63 13q-33 0 -62.5 -13t-51.5 -35t-34.5 -51.5t-12.5 -62.5t12.5 -62.5t34.5 -51.5t51.5 -35t62.5 -13q34 0 63 13t51 35t34.5 51.5t12.5 62.5zM108 520q0 23 9 43.5t24 35.5t35.5 24t43.5 9
t43.5 -9t35.5 -24t24 -35.5t9 -43.5t-9 -43.5t-24 -35.5t-35.5 -24t-43.5 -9t-43.5 9t-35.5 24t-24 35.5t-9 43.5z" />
    <glyph glyph-name="guillemotright" unicode="&#xbb;" horiz-adv-x="485" 
d="M229 407l154 -152l-153 -153l35 -35l189 188l-190 189zM55 407l154 -152l-152 -153l35 -35l189 188l-190 189z" />
    <glyph glyph-name="onequarter" unicode="&#xbc;" horiz-adv-x="310" 
d="M267 388h-218v-31h218v31zM223 458h-44v285h-88v-37h44v-248h-44v-37h132v37zM226 323h-36l-160 -223v-24h151v-38h-27v-37h100v37h-28v38h41v37h-41v210zM181 113h-99l99 137v-137z" />
    <glyph glyph-name="onehalf" unicode="&#xbd;" horiz-adv-x="310" 
d="M267 388h-218v-31h218v31zM224 458h-44v285h-88v-37h44v-248h-44v-37h132v37zM59 238h42l1 6q2 18 16 30t39 12t41 -15.5t16 -41.5q0 -17 -6.5 -28.5t-17.5 -20.5t-25 -16.5t-30 -15.5q-13 -8 -26.5 -17t-25.5 -22.5t-20.5 -33t-11.5 -47.5l-3 -29h205v91h-37v-54h-120
l3 17q5 24 21.5 38.5t41.5 28.5q15 9 31.5 18t30 21t22 29t8.5 41q0 41 -27.5 67.5t-69.5 26.5q-23 0 -41 -7t-30 -18.5t-18.5 -25t-7.5 -26.5z" />
    <glyph glyph-name="threequarters" unicode="&#xbe;" horiz-adv-x="310" 
d="M267 388h-218v-31h218v31zM257 665q0 37 -26.5 59.5t-68.5 22.5q-44 0 -70.5 -25.5t-28.5 -58.5h41q2 20 16 33.5t40 13.5q25 0 40.5 -12.5t15.5 -32.5q0 -26 -14 -38.5t-39 -12.5h-20v-36h20q22 0 42 -14.5t20 -46.5q0 -26 -18.5 -43.5t-46.5 -17.5q-24 0 -41 13t-20 35
h-41q4 -38 32 -61t72 -23q46 0 75.5 28t29.5 69q0 35 -17 54t-37 25q18 7 31 24t13 45zM225 321h-36l-160 -223v-24h151v-38h-27v-37h100v37h-28v38h41v37h-41v210zM180 111h-99l99 137v-137z" />
    <glyph glyph-name="questiondown" unicode="&#xbf;" horiz-adv-x="474" 
d="M199 395v-121q-31 -4 -60.5 -18.5t-52.5 -38.5t-37 -56.5t-14 -71.5q0 -36 11 -73t35.5 -66.5t63.5 -48.5t96 -19q53 0 90.5 18.5t62 46t37 60t15.5 60.5h-107q-2 -17 -8.5 -32.5t-18.5 -28.5t-30 -20.5t-41 -7.5q-55 0 -82 32.5t-27 77.5q0 57 42.5 92.5t121.5 35.5v179
h-97zM187 555q0 -25 17.5 -42.5t42.5 -17.5t42.5 17.5t17.5 42.5t-17.5 42.5t-42.5 17.5t-42.5 -17.5t-17.5 -42.5z" />
    <glyph glyph-name="Agrave" unicode="&#xc0;" horiz-adv-x="680" 
d="M342 741l27 28l-107 108l-28 -30zM338 598l99 -312h-198zM648 82h-53l-175 551h66v81h-296v-81h66l-175 -551h-53v-82h210v82h-63l35 111h256l35 -111h-63v-82h210v82z" />
    <glyph glyph-name="Aacute" unicode="&#xc1;" horiz-adv-x="680" 
d="M450 843l-29 29l-107 -107l28 -28zM338 598l99 -312h-198zM648 82h-53l-175 551h66v81h-296v-81h66l-175 -551h-53v-82h210v82h-63l35 111h256l35 -111h-63v-82h210v82z" />
    <glyph glyph-name="Acircumflex" unicode="&#xc2;" horiz-adv-x="680" 
d="M336 875l-97 -96l27 -28l70 69l68 -69l29 29zM338 598l99 -312h-198zM648 82h-53l-175 551h66v81h-296v-81h66l-175 -551h-53v-82h210v82h-63l35 111h256l35 -111h-63v-82h210v82z" />
    <glyph glyph-name="Atilde" unicode="&#xc3;" horiz-adv-x="680" 
d="M176 800l32 -40q15 15 29 23t41 8q17 0 30.5 -8.5t27.5 -16.5q13 -8 28 -14.5t36 -6.5q34 0 58.5 14.5t42.5 30.5l-30 41q-15 -12 -31 -21t-40 -9q-17 0 -30.5 8.5t-26.5 16.5q-14 9 -29.5 15t-35.5 6q-38 0 -61.5 -14.5t-40.5 -32.5zM338 598l99 -312h-198zM648 82h-53
l-175 551h66v81h-296v-81h66l-175 -551h-53v-82h210v82h-63l35 111h256l35 -111h-63v-82h210v82z" />
    <glyph glyph-name="Adieresis" unicode="&#xc4;" horiz-adv-x="680" 
d="M305 794q0 20 -13 33t-33 13q-19 0 -32.5 -13t-13.5 -33t13.5 -33t32.5 -13q20 0 33 13t13 33zM452 794q0 20 -13.5 33t-32.5 13q-20 0 -33 -13t-13 -33t13 -33t33 -13q19 0 32.5 13t13.5 33zM338 598l99 -312h-198zM648 82h-53l-175 551h66v81h-296v-81h66l-175 -551
h-53v-82h210v82h-63l35 111h256l35 -111h-63v-82h210v82z" />
    <glyph glyph-name="Aring" unicode="&#xc5;" horiz-adv-x="680" 
d="M406 810q0 29 -20 49t-49 20t-49 -20t-20 -49t20 -49t49 -20t49 20t20 49zM295 810q0 17 12.5 29.5t29.5 12.5t29.5 -12.5t12.5 -29.5t-12.5 -29.5t-29.5 -12.5t-29.5 12.5t-12.5 29.5zM338 598l99 -312h-198zM648 82h-53l-175 551h66v81h-296v-81h66l-175 -551h-53v-82
h210v82h-63l35 111h256l35 -111h-63v-82h210v82z" />
    <glyph glyph-name="AE" unicode="&#xc6;" horiz-adv-x="940" 
d="M892 561v153h-616v-81h127l-298 -551h-81v-82h260v82h-75l100 194h142v-194h-66v-82h507v163h-82v-81h-256v253h165v81h-165v217h256v-72h82zM451 556v-199h-102z" />
    <glyph glyph-name="Ccedilla" unicode="&#xc7;" horiz-adv-x="696" 
d="M405 -41l10 34q49 2 86 9.5t65.5 19t50.5 25.5t42 29l-46 73q-18 -15 -38 -28.5t-45.5 -24t-60 -17t-81.5 -6.5q-54 0 -101.5 21.5t-83 59t-56 89.5t-20.5 112q0 69 19.5 122.5t54.5 90t83.5 55t107.5 18.5q34 0 61.5 -7t48.5 -17t36 -22t25 -21v-54h92v192h-92v-41
q-13 9 -29 18.5t-37 16.5t-49 11.5t-64 4.5q-71 0 -134.5 -25t-111 -72t-75.5 -115t-28 -155q0 -76 25.5 -140t69.5 -112t102.5 -76.5t125.5 -33.5l-11 -34q8 -4 16.5 -12t8.5 -20q0 -13 -6 -21.5t-21 -8.5q-11 0 -21.5 5.5t-17.5 12.5v-61q9 -10 28.5 -19t41.5 -9
q32 0 51.5 19t19.5 50q0 23 -14 39.5t-28 24.5z" />
    <glyph glyph-name="Egrave" unicode="&#xc8;" horiz-adv-x="602" 
d="M344 741l27 28l-107 108l-28 -30zM51 82v-82h507v163h-81v-81h-257v252h166v82h-166v216h257v-71h81v153h-507v-82h67v-550h-67z" />
    <glyph glyph-name="Eacute" unicode="&#xc9;" horiz-adv-x="602" 
d="M413 843l-28 29l-107 -107l27 -28zM51 82v-82h507v163h-81v-81h-257v252h166v82h-166v216h257v-71h81v153h-507v-82h67v-550h-67z" />
    <glyph glyph-name="Ecircumflex" unicode="&#xca;" horiz-adv-x="602" 
d="M336 875l-97 -96l27 -28l70 69l68 -69l29 29zM51 82v-82h507v163h-81v-81h-257v252h166v82h-166v216h257v-71h81v153h-507v-82h67v-550h-67z" />
    <glyph glyph-name="Edieresis" unicode="&#xcb;" horiz-adv-x="602" 
d="M310 794q0 20 -13 33t-33 13q-19 0 -32.5 -13t-13.5 -33t13.5 -33t32.5 -13q20 0 33 13t13 33zM443 794q0 20 -13.5 33t-32.5 13q-20 0 -33 -13t-13 -33t13 -33t33 -13q19 0 32.5 13t13.5 33zM51 82v-82h507v163h-81v-81h-257v252h166v82h-166v216h257v-71h81v153h-507
v-82h67v-550h-67z" />
    <glyph glyph-name="Igrave" unicode="&#xcc;" horiz-adv-x="349" 
d="M179 741l27 28l-107 108l-29 -30zM300 82h-70v550h70v82h-240v-82h68v-550h-68v-82h240v82z" />
    <glyph glyph-name="Iacute" unicode="&#xcd;" horiz-adv-x="349" 
d="M299 843l-29 29l-107 -107l28 -28zM300 82h-70v550h70v82h-240v-82h68v-550h-68v-82h240v82z" />
    <glyph glyph-name="Icircumflex" unicode="&#xce;" horiz-adv-x="349" 
d="M183 875l-97 -96l27 -28l70 69l68 -69l29 29zM300 82h-70v550h70v82h-240v-82h68v-550h-68v-82h240v82z" />
    <glyph glyph-name="Idieresis" unicode="&#xcf;" horiz-adv-x="349" 
d="M162 794q0 20 -13 33t-33 13q-19 0 -32.5 -13t-13.5 -33t13.5 -33t32.5 -13q20 0 33 13t13 33zM295 794q0 20 -13.5 33t-32.5 13q-20 0 -33 -13t-13 -33t13 -33t33 -13q19 0 32.5 13t13.5 33zM300 82h-70v550h70v82h-240v-82h68v-550h-68v-82h240v82z" />
    <glyph glyph-name="Eth" unicode="&#xd0;" horiz-adv-x="711" 
d="M110 386h-77v-72h77v-230h-68v-84h309q82 0 143.5 29.5t102 79.5t61 116t20.5 139q0 71 -20.5 134.5t-61.5 111.5t-102 76t-143 28h-309v-83h68v-245zM214 386v245h120q63 0 108.5 -21.5t74.5 -58.5t42.5 -85t13.5 -102t-13.5 -104.5t-42 -89.5t-72.5 -62.5t-105 -23.5
h-126v230h136v72h-136z" />
    <glyph glyph-name="Ntilde" unicode="&#xd1;" horiz-adv-x="781" 
d="M220 800l32 -40q15 15 29 23t41 8q17 0 30.5 -8.5t27.5 -16.5q13 -8 28 -14.5t36 -6.5q34 0 58.5 14.5t42.5 30.5l-30 41q-15 -12 -31 -21t-40 -9q-17 0 -30.5 8.5t-26.5 16.5q-14 9 -29.5 15t-35.5 6q-38 0 -61.5 -14.5t-40.5 -32.5zM273 0v82h-67v452l373 -534h99v632
h65v82h-234v-82h67v-444l-375 526h-162v-82h65v-550h-65v-82h234z" />
    <glyph glyph-name="Ograve" unicode="&#xd2;" horiz-adv-x="804" 
d="M403 737l28 28l-108 107l-28 -29zM40 356q0 -69 23 -134.5t68.5 -117t113.5 -83t159 -31.5t159 31.5t113.5 83t68.5 117t23 134.5t-23 134.5t-68.5 117t-113.5 83t-159 31.5t-159 -31.5t-113.5 -83t-68.5 -117t-23 -134.5zM666 356q0 -53 -17 -101t-50 -85.5t-82 -59.5
t-113 -22t-113 22t-82 59.5t-50 85.5t-17 101q0 52 17 100.5t50 86t82 59.5t113 22t113 -22t82 -59.5t50 -86t17 -100.5z" />
    <glyph glyph-name="Oacute" unicode="&#xd3;" horiz-adv-x="804" 
d="M505 843l-28 29l-108 -107l28 -28zM40 356q0 -69 23 -134.5t68.5 -117t113.5 -83t159 -31.5t159 31.5t113.5 83t68.5 117t23 134.5t-23 134.5t-68.5 117t-113.5 83t-159 31.5t-159 -31.5t-113.5 -83t-68.5 -117t-23 -134.5zM666 356q0 -53 -17 -101t-50 -85.5t-82 -59.5
t-113 -22t-113 22t-82 59.5t-50 85.5t-17 101q0 52 17 100.5t50 86t82 59.5t113 22t113 -22t82 -59.5t50 -86t17 -100.5z" />
    <glyph glyph-name="Ocircumflex" unicode="&#xd4;" horiz-adv-x="804" 
d="M405 875l-97 -96l28 -28l69 69l68 -69l29 29zM40 356q0 -69 23 -134.5t68.5 -117t113.5 -83t159 -31.5t159 31.5t113.5 83t68.5 117t23 134.5t-23 134.5t-68.5 117t-113.5 83t-159 31.5t-159 -31.5t-113.5 -83t-68.5 -117t-23 -134.5zM666 356q0 -53 -17 -101t-50 -85.5
t-82 -59.5t-113 -22t-113 22t-82 59.5t-50 85.5t-17 101q0 52 17 100.5t50 86t82 59.5t113 22t113 -22t82 -59.5t50 -86t17 -100.5z" />
    <glyph glyph-name="Otilde" unicode="&#xd5;" horiz-adv-x="804" 
d="M244 800l32 -40q15 15 29 23t41 8q17 0 30.5 -8.5t27.5 -16.5q13 -8 28 -14.5t36 -6.5q34 0 58.5 14.5t42.5 30.5l-30 41q-15 -12 -31 -21t-40 -9q-17 0 -30.5 8.5t-26.5 16.5q-14 9 -29.5 15t-35.5 6q-38 0 -61.5 -14.5t-40.5 -32.5zM40 356q0 -69 23 -134.5t68.5 -117
t113.5 -83t159 -31.5t159 31.5t113.5 83t68.5 117t23 134.5t-23 134.5t-68.5 117t-113.5 83t-159 31.5t-159 -31.5t-113.5 -83t-68.5 -117t-23 -134.5zM666 356q0 -53 -17 -101t-50 -85.5t-82 -59.5t-113 -22t-113 22t-82 59.5t-50 85.5t-17 101q0 52 17 100.5t50 86
t82 59.5t113 22t113 -22t82 -59.5t50 -86t17 -100.5z" />
    <glyph glyph-name="Odieresis" unicode="&#xd6;" horiz-adv-x="804" 
d="M371 794q0 20 -13 33t-33 13q-19 0 -32.5 -13t-13.5 -33t13.5 -33t32.5 -13q20 0 33 13t13 33zM526 794q0 20 -13.5 33t-32.5 13q-20 0 -33 -13t-13 -33t13 -33t33 -13q19 0 32.5 13t13.5 33zM40 356q0 -69 23 -134.5t68.5 -117t113.5 -83t159 -31.5t159 31.5t113.5 83
t68.5 117t23 134.5t-23 134.5t-68.5 117t-113.5 83t-159 31.5t-159 -31.5t-113.5 -83t-68.5 -117t-23 -134.5zM666 356q0 -53 -17 -101t-50 -85.5t-82 -59.5t-113 -22t-113 22t-82 59.5t-50 85.5t-17 101q0 52 17 100.5t50 86t82 59.5t113 22t113 -22t82 -59.5t50 -86
t17 -100.5z" />
    <glyph glyph-name="multiply" unicode="&#xd7;" horiz-adv-x="445" 
d="M132 413l-76 -51l107 -149l-117 -163l76 -50l99 137l100 -137l78 50l-118 162l109 150l-76 51l-91 -125z" />
    <glyph glyph-name="Oslash" unicode="&#xd8;" horiz-adv-x="804" 
d="M40 356q0 -82 32 -158t95 -129l-59 -91l62 -41l59 92q37 -19 80.5 -29t94.5 -10q91 0 159 31.5t113.5 83t68.5 117t23 134.5q0 87 -35 166t-105 130l59 92l-62 37l-59 -92q-36 16 -76 24.5t-86 8.5q-91 0 -159 -31.5t-113.5 -83t-68.5 -117t-23 -134.5zM404 76
q-38 0 -69.5 8t-55.5 22l298 466q45 -40 67 -97.5t22 -118.5q0 -53 -16.5 -103t-49.5 -89.5t-82 -63.5t-114 -24zM517 612l-298 -461q-38 41 -57.5 94.5t-19.5 110.5q0 52 16.5 102.5t49.5 90t82 63.5t114 24q33 0 61 -6.5t52 -17.5z" />
    <glyph glyph-name="Ugrave" unicode="&#xd9;" horiz-adv-x="655" 
d="M313 737l28 28l-107 107l-29 -29zM565 215v417h69v82h-238v-82h67v-423q0 -35 -10.5 -59.5t-29 -39.5t-43.5 -21.5t-54 -6.5q-27 0 -51.5 6.5t-44 21.5t-31 39.5t-11.5 59.5v423h69v82h-238v-82h67v-417q0 -56 18 -98t49.5 -70.5t75.5 -42.5t97 -14q52 0 96 14t75.5 42.5
t49.5 70.5t18 98z" />
    <glyph glyph-name="Uacute" unicode="&#xda;" horiz-adv-x="655" 
d="M434 843l-29 29l-107 -107l28 -28zM565 215v417h69v82h-238v-82h67v-423q0 -35 -10.5 -59.5t-29 -39.5t-43.5 -21.5t-54 -6.5q-27 0 -51.5 6.5t-44 21.5t-31 39.5t-11.5 59.5v423h69v82h-238v-82h67v-417q0 -56 18 -98t49.5 -70.5t75.5 -42.5t97 -14q52 0 96 14
t75.5 42.5t49.5 70.5t18 98z" />
    <glyph glyph-name="Ucircumflex" unicode="&#xdb;" horiz-adv-x="655" 
d="M333 875l-97 -96l27 -28l70 69l68 -69l29 29zM565 215v417h69v82h-238v-82h67v-423q0 -35 -10.5 -59.5t-29 -39.5t-43.5 -21.5t-54 -6.5q-27 0 -51.5 6.5t-44 21.5t-31 39.5t-11.5 59.5v423h69v82h-238v-82h67v-417q0 -56 18 -98t49.5 -70.5t75.5 -42.5t97 -14
q52 0 96 14t75.5 42.5t49.5 70.5t18 98z" />
    <glyph glyph-name="Udieresis" unicode="&#xdc;" horiz-adv-x="655" 
d="M300 794q0 20 -13 33t-33 13q-19 0 -32.5 -13t-13.5 -33t13.5 -33t32.5 -13q20 0 33 13t13 33zM444 794q0 20 -13.5 33t-32.5 13q-20 0 -33 -13t-13 -33t13 -33t33 -13q19 0 32.5 13t13.5 33zM565 215v417h69v82h-238v-82h67v-423q0 -35 -10.5 -59.5t-29 -39.5
t-43.5 -21.5t-54 -6.5q-27 0 -51.5 6.5t-44 21.5t-31 39.5t-11.5 59.5v423h69v82h-238v-82h67v-417q0 -56 18 -98t49.5 -70.5t75.5 -42.5t97 -14q52 0 96 14t75.5 42.5t49.5 70.5t18 98z" />
    <glyph glyph-name="Yacute" unicode="&#xdd;" horiz-adv-x="643" 
d="M271 345v-263h-53v-82h211v82h-56v263l201 287h46v82h-221v-82h67l-144 -199l-140 199h64v82h-222v-82h46zM438 843l-28 29l-107 -107l27 -28z" />
    <glyph glyph-name="Thorn" unicode="&#xde;" horiz-adv-x="520" 
d="M34 631l67 2v-551h-67v-82h237v82h-69v94h97q43 0 79 14t61.5 39.5t39.5 61t14 79.5q0 37 -12.5 72.5t-36.5 63t-60.5 44t-84.5 16.5h-97v65h69v82h-237v-82zM396 370q0 -21 -6.5 -41.5t-18.5 -36t-30 -25t-42 -9.5h-97v225h97q24 0 42 -10t30 -26t18.5 -36.5t6.5 -40.5z
" />
    <glyph glyph-name="germandbls" unicode="&#xdf;" horiz-adv-x="562" 
d="M266 714q-39 0 -71.5 -11.5t-56.5 -33.5t-37.5 -53.5t-13.5 -70.5v-132h-56v-97h56v-316h97v530q0 43 21.5 65.5t60.5 22.5q38 0 60.5 -25t22.5 -68q0 -38 -19.5 -62.5t-64.5 -24.5v-92q92 0 133 -28t41 -94q0 -26 -7 -49t-21.5 -40.5t-38 -27.5t-56.5 -10h-51v-97h59
q51 0 90.5 17.5t66.5 48t41 71.5t14 87q0 41 -12.5 74t-33.5 56.5t-49 37.5t-60 17q32 13 48.5 43.5t16.5 72.5q0 41 -13 76t-37 60t-57 39t-73 14z" />
    <glyph glyph-name="agrave" unicode="&#xe0;" horiz-adv-x="572" 
d="M269 592l35 36l-134 133l-35 -37zM243 451q27 0 53 -7t46.5 -21t32.5 -34.5t12 -48.5v-47q-8 9 -20 18.5t-29.5 18t-41.5 14t-55 5.5q-50 0 -89.5 -14.5t-66.5 -39.5t-41.5 -57.5t-14.5 -68.5t13.5 -68t40 -57t66 -39.5t92.5 -14.5q34 0 57.5 4.5t40 11.5t28 15.5
t20.5 16.5v-38h171v61h-73v273q0 51 -20 88t-52 61t-73.5 35.5t-84.5 11.5q-54 0 -104.5 -17t-82.5 -48l48 -61q23 23 57.5 35t69.5 12zM115 169q0 41 31 69.5t97 28.5q69 0 103.5 -29.5t34.5 -68.5t-34.5 -68t-103.5 -29q-66 0 -97 28t-31 69z" />
    <glyph glyph-name="aacute" unicode="&#xe1;" horiz-adv-x="572" 
d="M406 724l-36 37l-133 -133l34 -36zM243 451q27 0 53 -7t46.5 -21t32.5 -34.5t12 -48.5v-47q-8 9 -20 18.5t-29.5 18t-41.5 14t-55 5.5q-50 0 -89.5 -14.5t-66.5 -39.5t-41.5 -57.5t-14.5 -68.5t13.5 -68t40 -57t66 -39.5t92.5 -14.5q34 0 57.5 4.5t40 11.5t28 15.5
t20.5 16.5v-38h171v61h-73v273q0 51 -20 88t-52 61t-73.5 35.5t-84.5 11.5q-54 0 -104.5 -17t-82.5 -48l48 -61q23 23 57.5 35t69.5 12zM115 169q0 41 31 69.5t97 28.5q69 0 103.5 -29.5t34.5 -68.5t-34.5 -68t-103.5 -29q-66 0 -97 28t-31 69z" />
    <glyph glyph-name="acircumflex" unicode="&#xe2;" horiz-adv-x="572" 
d="M260 755l-121 -121l34 -35l87 87l86 -86l35 35zM243 451q27 0 53 -7t46.5 -21t32.5 -34.5t12 -48.5v-47q-8 9 -20 18.5t-29.5 18t-41.5 14t-55 5.5q-50 0 -89.5 -14.5t-66.5 -39.5t-41.5 -57.5t-14.5 -68.5t13.5 -68t40 -57t66 -39.5t92.5 -14.5q34 0 57.5 4.5t40 11.5
t28 15.5t20.5 16.5v-38h171v61h-73v273q0 51 -20 88t-52 61t-73.5 35.5t-84.5 11.5q-54 0 -104.5 -17t-82.5 -48l48 -61q23 23 57.5 35t69.5 12zM115 169q0 41 31 69.5t97 28.5q69 0 103.5 -29.5t34.5 -68.5t-34.5 -68t-103.5 -29q-66 0 -97 28t-31 69z" />
    <glyph glyph-name="atilde" unicode="&#xe3;" horiz-adv-x="572" 
d="M100 662l32 -40q15 15 29 23t41 8q17 0 30.5 -8.5t27.5 -16.5q13 -8 28 -14.5t36 -6.5q34 0 58.5 14.5t42.5 30.5l-30 41q-15 -12 -31 -21t-40 -9q-17 0 -30.5 8.5t-26.5 16.5q-14 9 -29.5 15t-35.5 6q-38 0 -61.5 -14.5t-40.5 -32.5zM243 451q27 0 53 -7t46.5 -21
t32.5 -34.5t12 -48.5v-47q-8 9 -20 18.5t-29.5 18t-41.5 14t-55 5.5q-50 0 -89.5 -14.5t-66.5 -39.5t-41.5 -57.5t-14.5 -68.5t13.5 -68t40 -57t66 -39.5t92.5 -14.5q34 0 57.5 4.5t40 11.5t28 15.5t20.5 16.5v-38h171v61h-73v273q0 51 -20 88t-52 61t-73.5 35.5t-84.5 11.5
q-54 0 -104.5 -17t-82.5 -48l48 -61q23 23 57.5 35t69.5 12zM115 169q0 41 31 69.5t97 28.5q69 0 103.5 -29.5t34.5 -68.5t-34.5 -68t-103.5 -29q-66 0 -97 28t-31 69z" />
    <glyph glyph-name="adieresis" unicode="&#xe4;" horiz-adv-x="572" 
d="M245 654q0 23 -15.5 38.5t-38.5 15.5t-38.5 -15.5t-15.5 -38.5t15.5 -38.5t38.5 -15.5t38.5 15.5t15.5 38.5zM394 654q0 23 -15.5 38.5t-38.5 15.5t-38.5 -15.5t-15.5 -38.5t15.5 -38.5t38.5 -15.5t38.5 15.5t15.5 38.5zM243 451q27 0 53 -7t46.5 -21t32.5 -34.5
t12 -48.5v-47q-8 9 -20 18.5t-29.5 18t-41.5 14t-55 5.5q-50 0 -89.5 -14.5t-66.5 -39.5t-41.5 -57.5t-14.5 -68.5t13.5 -68t40 -57t66 -39.5t92.5 -14.5q34 0 57.5 4.5t40 11.5t28 15.5t20.5 16.5v-38h171v61h-73v273q0 51 -20 88t-52 61t-73.5 35.5t-84.5 11.5
q-54 0 -104.5 -17t-82.5 -48l48 -61q23 23 57.5 35t69.5 12zM115 169q0 41 31 69.5t97 28.5q69 0 103.5 -29.5t34.5 -68.5t-34.5 -68t-103.5 -29q-66 0 -97 28t-31 69z" />
    <glyph glyph-name="aring" unicode="&#xe5;" horiz-adv-x="572" 
d="M345 646q0 18 -7 33.5t-18.5 27t-27 18.5t-33.5 7t-33.5 -7t-27 -18.5t-18.5 -27t-7 -33.5t7 -33.5t18.5 -27t27 -18.5t33.5 -7t33.5 7t27 18.5t18.5 27t7 33.5zM206 646q0 22 15.5 37.5t37.5 15.5t37.5 -15.5t15.5 -37.5t-15.5 -37.5t-37.5 -15.5t-37.5 15.5t-15.5 37.5
zM243 451q27 0 53 -7t46.5 -21t32.5 -34.5t12 -48.5v-47q-8 9 -20 18.5t-29.5 18t-41.5 14t-55 5.5q-50 0 -89.5 -14.5t-66.5 -39.5t-41.5 -57.5t-14.5 -68.5t13.5 -68t40 -57t66 -39.5t92.5 -14.5q34 0 57.5 4.5t40 11.5t28 15.5t20.5 16.5v-38h171v61h-73v273q0 51 -20 88
t-52 61t-73.5 35.5t-84.5 11.5q-54 0 -104.5 -17t-82.5 -48l48 -61q23 23 57.5 35t69.5 12zM115 169q0 41 31 69.5t97 28.5q69 0 103.5 -29.5t34.5 -68.5t-34.5 -68t-103.5 -29q-66 0 -97 28t-31 69z" />
    <glyph glyph-name="ae" unicode="&#xe6;" horiz-adv-x="939" 
d="M656 527q-69 0 -120 -24t-86 -62q-32 47 -86 68t-113 21q-54 0 -104.5 -17t-82.5 -48l48 -61q23 23 57.5 35t69.5 12q27 0 53 -7t46.5 -21t32.5 -34.5t12 -48.5v-47q-8 9 -20 18.5t-29.5 18t-41.5 14t-55 5.5q-51 0 -90.5 -14.5t-66.5 -39.5t-41 -57.5t-14 -68.5
t13.5 -68t40 -57t66 -39.5t92.5 -14.5q34 0 57.5 4.5t40 11.5t28 15.5t20.5 16.5v-38h98v44q34 -26 79 -41.5t102 -15.5q37 0 65 6t50.5 16.5t40.5 24.5t35 29l-60 60q-20 -17 -51 -34t-80 -17q-50 0 -84.5 15.5t-57 38.5t-33.5 49t-13 47h437q1 7 1 13v15q0 45 -14 94
t-45 89.5t-79.5 67t-117.5 26.5zM104 168q0 19 8.5 38t25.5 33.5t42 23.5t59 9t60 -9t43.5 -23.5t26 -33.5t8.5 -38q0 -20 -8.5 -38.5t-26 -33t-43.5 -23.5t-60 -9t-59 9t-42 23.5t-25.5 33t-8.5 38.5zM820 296h-343q1 21 12.5 47.5t33 49t53.5 38t76 15.5q45 0 76.5 -15
t51.5 -37.5t29 -48.5t11 -49z" />
    <glyph glyph-name="ccedilla" unicode="&#xe7;" horiz-adv-x="521" 
d="M31 256q0 -49 16.5 -96.5t49.5 -85t83 -61t116 -26.5l-12 -40q13 -4 24.5 -13t11.5 -23t-8.5 -20.5t-21.5 -6.5q-14 0 -26 8t-20 17v-43q8 -11 24 -19.5t37 -8.5q33 0 47.5 20t14.5 41q0 20 -11 34.5t-24 19.5l9 35q57 6 95 28t64 47l-57 63q-18 -18 -51 -36t-81 -18
t-84.5 16t-60.5 42.5t-36 60t-12 68.5t12 68.5t36 60t60.5 42.5t84.5 16q40 0 69 -12.5t42 -22.5v-45h72v156h-72v-21q-19 11 -46.5 17.5t-66.5 6.5q-69 0 -121.5 -23t-87 -61t-52 -86.5t-17.5 -98.5z" />
    <glyph glyph-name="egrave" unicode="&#xe8;" horiz-adv-x="583" 
d="M312 592l35 36l-134 133l-35 -37zM128 222h435q1 7 1 13v15q0 45 -14 94t-45 89.5t-79.5 67t-117.5 26.5q-66 0 -117 -23t-85.5 -61t-52.5 -86.5t-18 -99.5t17.5 -99.5t52 -86.5t87 -61t122.5 -23q37 0 65 6t50.5 16.5t40.5 24.5t35 29l-60 60q-20 -17 -51 -33t-80 -16
q-47 0 -81 15.5t-56.5 38t-34.5 48t-14 46.5zM468 296h-339q1 21 12.5 46t33 46.5t53.5 35.5t76 14q42 0 71.5 -13.5t49 -34.5t30 -46t13.5 -48z" />
    <glyph glyph-name="eacute" unicode="&#xe9;" horiz-adv-x="583" 
d="M447 724l-36 37l-133 -133l34 -36zM128 222h435q1 7 1 13v15q0 45 -14 94t-45 89.5t-79.5 67t-117.5 26.5q-66 0 -117 -23t-85.5 -61t-52.5 -86.5t-18 -99.5t17.5 -99.5t52 -86.5t87 -61t122.5 -23q37 0 65 6t50.5 16.5t40.5 24.5t35 29l-60 60q-20 -17 -51 -33t-80 -16
q-47 0 -81 15.5t-56.5 38t-34.5 48t-14 46.5zM468 296h-339q1 21 12.5 46t33 46.5t53.5 35.5t76 14q42 0 71.5 -13.5t49 -34.5t30 -46t13.5 -48z" />
    <glyph glyph-name="ecircumflex" unicode="&#xea;" horiz-adv-x="583" 
d="M313 755l-121 -121l35 -35l86 87l86 -86l35 35zM128 222h435q1 7 1 13v15q0 45 -14 94t-45 89.5t-79.5 67t-117.5 26.5q-66 0 -117 -23t-85.5 -61t-52.5 -86.5t-18 -99.5t17.5 -99.5t52 -86.5t87 -61t122.5 -23q37 0 65 6t50.5 16.5t40.5 24.5t35 29l-60 60
q-20 -17 -51 -33t-80 -16q-47 0 -81 15.5t-56.5 38t-34.5 48t-14 46.5zM468 296h-339q1 21 12.5 46t33 46.5t53.5 35.5t76 14q42 0 71.5 -13.5t49 -34.5t30 -46t13.5 -48z" />
    <glyph glyph-name="edieresis" unicode="&#xeb;" horiz-adv-x="583" 
d="M291 654q0 23 -15.5 38.5t-38.5 15.5t-38.5 -15.5t-15.5 -38.5t15.5 -38.5t38.5 -15.5t38.5 15.5t15.5 38.5zM440 654q0 23 -15.5 38.5t-38.5 15.5t-38.5 -15.5t-15.5 -38.5t15.5 -38.5t38.5 -15.5t38.5 15.5t15.5 38.5zM128 222h435q1 7 1 13v15q0 45 -14 94t-45 89.5
t-79.5 67t-117.5 26.5q-66 0 -117 -23t-85.5 -61t-52.5 -86.5t-18 -99.5t17.5 -99.5t52 -86.5t87 -61t122.5 -23q37 0 65 6t50.5 16.5t40.5 24.5t35 29l-60 60q-20 -17 -51 -33t-80 -16q-47 0 -81 15.5t-56.5 38t-34.5 48t-14 46.5zM468 296h-339q1 21 12.5 46t33 46.5
t53.5 35.5t76 14q42 0 71.5 -13.5t49 -34.5t30 -46t13.5 -48z" />
    <glyph glyph-name="igrave" unicode="&#xec;" horiz-adv-x="315" 
d="M143 592l35 36l-134 133l-36 -37zM51 454h61v-393h-61v-61h219v61h-61v454h-158v-61z" />
    <glyph glyph-name="iacute" unicode="&#xed;" horiz-adv-x="315" 
d="M300 724l-36 37l-133 -133l34 -36zM51 454h61v-393h-61v-61h219v61h-61v454h-158v-61z" />
    <glyph glyph-name="icircumflex" unicode="&#xee;" horiz-adv-x="315" 
d="M158 755l-121 -121l34 -35l87 87l86 -86l35 35zM51 454h61v-393h-61v-61h219v61h-61v454h-158v-61z" />
    <glyph glyph-name="idieresis" unicode="&#xef;" horiz-adv-x="315" 
d="M51 454h61v-393h-61v-61h219v61h-61v454h-158v-61zM133 654q0 23 -15.5 38.5t-38.5 15.5t-38.5 -15.5t-15.5 -38.5t15.5 -38.5t38.5 -15.5t38.5 15.5t15.5 38.5zM282 654q0 23 -15.5 38.5t-38.5 15.5t-38.5 -15.5t-15.5 -38.5t15.5 -38.5t38.5 -15.5t38.5 15.5t15.5 38.5
z" />
    <glyph glyph-name="eth" unicode="&#xf0;" horiz-adv-x="510" 
d="M133 207q0 25 9.5 47.5t26 39t39 26t47.5 9.5t47.5 -9.5t39 -26t26 -39t9.5 -47.5t-9.5 -47.5t-26 -39t-39 -26t-47.5 -9.5t-47.5 9.5t-39 26t-26 39t-9.5 47.5zM363 391q-24 14 -51.5 22t-57.5 8q-45 0 -84 -17t-68 -46t-46 -68t-17 -84t17 -84t46 -68t68 -46t84 -17
q44 0 83 17t68.5 47.5t46.5 72t17 90.5q0 51 -5.5 105.5t-21.5 107.5t-44.5 102t-73.5 90l101 65l-63 41l-96 -60q-42 27 -83.5 46.5t-84.5 33.5l-61 -54q38 -13 78.5 -31t72.5 -43l-96 -64l62 -39l96 60q38 -32 67 -76t46 -111z" />
    <glyph glyph-name="ntilde" unicode="&#xf1;" horiz-adv-x="618" 
d="M142 662l32 -40q15 15 29 23t41 8q17 0 30.5 -8.5t27.5 -16.5q13 -8 28 -14.5t36 -6.5q34 0 58.5 14.5t42.5 30.5l-30 41q-15 -12 -31 -21t-40 -9q-17 0 -30.5 8.5t-26.5 16.5q-14 9 -29.5 15t-35.5 6q-38 0 -61.5 -14.5t-40.5 -32.5zM34 0h219v61h-61v294
q5 11 15.5 26.5t28 29.5t41 24t54.5 10q49 0 77.5 -28t28.5 -75v-281h-61v-61h219v61h-61v286q0 84 -51.5 133.5t-140.5 49.5q-33 0 -56.5 -5.5t-41 -14.5t-30 -20.5t-22.5 -23.5v49h-158v-61h61v-393h-61v-61z" />
    <glyph glyph-name="ograve" unicode="&#xf2;" horiz-adv-x="604" 
d="M316 592l35 36l-134 133l-35 -37zM577 255q0 56 -21 105t-57.5 86t-85.5 58t-105 21t-105 -21t-85.5 -58t-57.5 -86t-21 -105t21 -105t57.5 -86t85.5 -58t105 -21t105 21t85.5 58t57.5 86t21 105zM129 256q0 37 14 69.5t38.5 56.5t57 38t69.5 14t69.5 -14t57 -38
t38.5 -56.5t14 -69.5t-14 -69.5t-38.5 -56.5t-57 -38t-69.5 -14t-69.5 14t-57 38t-38.5 56.5t-14 69.5z" />
    <glyph glyph-name="oacute" unicode="&#xf3;" horiz-adv-x="604" 
d="M441 724l-36 37l-134 -133l35 -36zM577 255q0 56 -21 105t-57.5 86t-85.5 58t-105 21t-105 -21t-85.5 -58t-57.5 -86t-21 -105t21 -105t57.5 -86t85.5 -58t105 -21t105 21t85.5 58t57.5 86t21 105zM129 256q0 37 14 69.5t38.5 56.5t57 38t69.5 14t69.5 -14t57 -38
t38.5 -56.5t14 -69.5t-14 -69.5t-38.5 -56.5t-57 -38t-69.5 -14t-69.5 14t-57 38t-38.5 56.5t-14 69.5z" />
    <glyph glyph-name="ocircumflex" unicode="&#xf4;" horiz-adv-x="604" 
d="M307 755l-121 -121l34 -35l87 87l86 -86l35 35zM577 255q0 56 -21 105t-57.5 86t-85.5 58t-105 21t-105 -21t-85.5 -58t-57.5 -86t-21 -105t21 -105t57.5 -86t85.5 -58t105 -21t105 21t85.5 58t57.5 86t21 105zM129 256q0 37 14 69.5t38.5 56.5t57 38t69.5 14t69.5 -14
t57 -38t38.5 -56.5t14 -69.5t-14 -69.5t-38.5 -56.5t-57 -38t-69.5 -14t-69.5 14t-57 38t-38.5 56.5t-14 69.5z" />
    <glyph glyph-name="otilde" unicode="&#xf5;" horiz-adv-x="604" 
d="M142 662l32 -40q15 15 29 23t41 8q17 0 30.5 -8.5t27.5 -16.5q13 -8 28 -14.5t36 -6.5q34 0 58.5 14.5t42.5 30.5l-30 41q-15 -12 -31 -21t-40 -9q-17 0 -30.5 8.5t-26.5 16.5q-14 9 -29.5 15t-35.5 6q-38 0 -61.5 -14.5t-40.5 -32.5zM577 255q0 56 -21 105t-57.5 86
t-85.5 58t-105 21t-105 -21t-85.5 -58t-57.5 -86t-21 -105t21 -105t57.5 -86t85.5 -58t105 -21t105 21t85.5 58t57.5 86t21 105zM129 256q0 37 14 69.5t38.5 56.5t57 38t69.5 14t69.5 -14t57 -38t38.5 -56.5t14 -69.5t-14 -69.5t-38.5 -56.5t-57 -38t-69.5 -14t-69.5 14
t-57 38t-38.5 56.5t-14 69.5z" />
    <glyph glyph-name="odieresis" unicode="&#xf6;" horiz-adv-x="604" 
d="M287 654q0 23 -15.5 38.5t-38.5 15.5t-38.5 -15.5t-15.5 -38.5t15.5 -38.5t38.5 -15.5t38.5 15.5t15.5 38.5zM436 654q0 23 -15.5 38.5t-38.5 15.5t-38.5 -15.5t-15.5 -38.5t15.5 -38.5t38.5 -15.5t38.5 15.5t15.5 38.5zM577 255q0 56 -21 105t-57.5 86t-85.5 58t-105 21
t-105 -21t-85.5 -58t-57.5 -86t-21 -105t21 -105t57.5 -86t85.5 -58t105 -21t105 21t85.5 58t57.5 86t21 105zM129 256q0 37 14 69.5t38.5 56.5t57 38t69.5 14t69.5 -14t57 -38t38.5 -56.5t14 -69.5t-14 -69.5t-38.5 -56.5t-57 -38t-69.5 -14t-69.5 14t-57 38t-38.5 56.5
t-14 69.5z" />
    <glyph glyph-name="divide" unicode="&#xf7;" horiz-adv-x="362" 
d="M299 315h-227v-71h227v71zM245 132q0 25 -17.5 42.5t-42.5 17.5t-42.5 -17.5t-17.5 -42.5t17.5 -42.5t42.5 -17.5t42.5 17.5t17.5 42.5zM245 444q0 25 -17.5 42.5t-42.5 17.5t-42.5 -17.5t-17.5 -42.5t17.5 -42.5t42.5 -17.5t42.5 17.5t17.5 42.5z" />
    <glyph glyph-name="oslash" unicode="&#xf8;" horiz-adv-x="604" 
d="M181 131q-24 24 -38 56t-14 69t14 69.5t38.5 56.5t57 38t69.5 14q31 0 61 -11zM431 386q26 -25 41 -58.5t15 -71.5q0 -37 -14 -69.5t-38.5 -56.5t-57 -38t-69.5 -14q-35 0 -66 12zM480 463l39 61l-61 37l-39 -60q-25 11 -53 17.5t-58 6.5q-56 0 -105 -21t-85.5 -58
t-57.5 -86t-21 -105q0 -60 24.5 -112.5t66.5 -90.5l-41 -64l62 -41l41 64q54 -26 116 -26q56 0 105 21t85.5 58t57.5 86t21 105q0 63 -26 117t-71 91z" />
    <glyph glyph-name="ugrave" unicode="&#xf9;" horiz-adv-x="637" 
d="M324 592l35 36l-133 133l-36 -37zM539 515h-158v-61h61v-288q0 -5 -8.5 -21t-26 -33t-43.5 -30t-61 -13q-49 0 -77.5 30.5t-28.5 87.5v328h-158v-61h61v-263q0 -105 49.5 -155t142.5 -50q34 0 58.5 6t42.5 15.5t29.5 20.5t19.5 20v-48h158v61h-61v454z" />
    <glyph glyph-name="uacute" unicode="&#xfa;" horiz-adv-x="637" 
d="M443 724l-36 37l-134 -133l35 -36zM539 515h-158v-61h61v-288q0 -5 -8.5 -21t-26 -33t-43.5 -30t-61 -13q-49 0 -77.5 30.5t-28.5 87.5v328h-158v-61h61v-263q0 -105 49.5 -155t142.5 -50q34 0 58.5 6t42.5 15.5t29.5 20.5t19.5 20v-48h158v61h-61v454z" />
    <glyph glyph-name="ucircumflex" unicode="&#xfb;" horiz-adv-x="637" 
d="M311 755l-121 -121l34 -35l87 87l86 -86l35 35zM539 515h-158v-61h61v-288q0 -5 -8.5 -21t-26 -33t-43.5 -30t-61 -13q-49 0 -77.5 30.5t-28.5 87.5v328h-158v-61h61v-263q0 -105 49.5 -155t142.5 -50q34 0 58.5 6t42.5 15.5t29.5 20.5t19.5 20v-48h158v61h-61v454z" />
    <glyph glyph-name="udieresis" unicode="&#xfc;" horiz-adv-x="637" 
d="M287 654q0 23 -15.5 38.5t-38.5 15.5t-38.5 -15.5t-15.5 -38.5t15.5 -38.5t38.5 -15.5t38.5 15.5t15.5 38.5zM436 654q0 23 -15.5 38.5t-38.5 15.5t-38.5 -15.5t-15.5 -38.5t15.5 -38.5t38.5 -15.5t38.5 15.5t15.5 38.5zM539 515h-158v-61h61v-288q0 -5 -8.5 -21t-26 -33
t-43.5 -30t-61 -13q-49 0 -77.5 30.5t-28.5 87.5v328h-158v-61h61v-263q0 -105 49.5 -155t142.5 -50q34 0 58.5 6t42.5 15.5t29.5 20.5t19.5 20v-48h158v61h-61v454z" />
    <glyph glyph-name="yacute" unicode="&#xfd;" horiz-adv-x="633" 
d="M71 454l200 -428l-71 -154h-54v-61h199v61h-54l272 582h47v61h-189v-61h47l-150 -330l-152 330h50v61h-188v-61h43zM447 724l-36 37l-134 -133l35 -36z" />
    <glyph glyph-name="thorn" unicode="&#xfe;" horiz-adv-x="666" 
d="M198 -122v176q36 -32 82 -50.5t98 -18.5q56 0 105 21t85.5 58t57.5 86t21 105t-21 105t-57.5 86t-85.5 58t-105 21q-52 0 -97.5 -17.5t-80.5 -49.5v292h-158v-71h59v-801h-61v-72h219v72h-61zM191 255q0 39 14.5 72.5t40 59t59.5 40t73 14.5t73 -14.5t59.5 -40t40 -59
t14.5 -72.5t-14.5 -72.5t-40 -59t-59.5 -40t-73 -14.5t-73 14.5t-59.5 40t-40 59t-14.5 72.5z" />
    <glyph glyph-name="ydieresis" unicode="&#xff;" horiz-adv-x="634" 
d="M305 654q0 23 -15.5 38.5t-38.5 15.5t-38.5 -15.5t-15.5 -38.5t15.5 -38.5t38.5 -15.5t38.5 15.5t15.5 38.5zM454 654q0 23 -15.5 38.5t-38.5 15.5t-38.5 -15.5t-15.5 -38.5t15.5 -38.5t38.5 -15.5t38.5 15.5t15.5 38.5zM71 454l200 -428l-71 -154h-54v-61h199v61h-54
l272 582h47v61h-189v-61h47l-150 -330l-152 330h50v61h-188v-61h43z" />
  </font>
</defs>
</svg>
